<?xml version="1.0" encoding="UTF-8"?>
<svg viewBox="0 0 700 457" xmlns="http://www.w3.org/2000/svg" xmlns:xlink="http://www.w3.org/1999/xlink">
 <defs>
  <linearGradient id="a">
   <stop offset="0"/>
   <stop stop-opacity="0" offset="1"/>
  </linearGradient>
  <linearGradient id="b">
   <stop stop-color="#fff" offset="0"/>
   <stop stop-color="#fff" stop-opacity="0" offset="1"/>
  </linearGradient>
  <linearGradient id="c">
   <stop stop-color="#cfcab7" offset="0"/>
   <stop stop-color="#cfcab7" stop-opacity="0" offset="1"/>
  </linearGradient>
  <linearGradient id="n" x1="864.82" x2="877.69" y1="190.94" y2="916.79" gradientUnits="userSpaceOnUse">
   <stop stop-color="#ece4d9" offset="0"/>
   <stop stop-color="#5f5755" offset="1"/>
  </linearGradient>
  <linearGradient id="l" x1="852.84" x2="853.91" y1="98.512" y2="115.53" gradientUnits="userSpaceOnUse">
   <stop stop-color="#fff" stop-opacity="0" offset="0"/>
   <stop stop-color="#fff" stop-opacity=".69347" offset=".5"/>
   <stop stop-color="#fff" stop-opacity="0" offset="1"/>
  </linearGradient>
  <linearGradient id="i" x1="786.53" x2="510.71" y1="113.4" y2="70.688" gradientUnits="userSpaceOnUse">
   <stop stop-color="#6c5b3d" offset="0"/>
   <stop stop-color="#3e3f36" offset="1"/>
  </linearGradient>
  <linearGradient id="h" x1="922.65" x2="1198.5" gradientUnits="userSpaceOnUse">
   <stop stop-color="#6c5b3d" offset="0"/>
   <stop stop-color="#545850" offset="1"/>
  </linearGradient>
  <linearGradient id="m" x1="866.87" x2="868.22" y1="288.84" y2="370.63" gradientUnits="userSpaceOnUse" xlink:href="#a"/>
  <linearGradient id="k" x1="824.78" x2="847.03" y1="202.54" y2="195.42" gradientUnits="userSpaceOnUse" xlink:href="#c"/>
  <linearGradient id="j" x1="912.87" x2="889.73" y1="197.2" y2="191.86" gradientUnits="userSpaceOnUse" xlink:href="#c"/>
  <linearGradient id="g" x1="658.65" x2="695.48" y1="48.944" y2="137.92" gradientUnits="userSpaceOnUse" xlink:href="#b"/>
  <linearGradient id="f" x1="1057.4" x2="1035.7" y1="25.327" y2="142.77" gradientUnits="userSpaceOnUse" xlink:href="#b"/>
  <linearGradient id="e" x1="358.5" x2="354.55" y1="97.353" y2="181.03" gradientUnits="userSpaceOnUse" xlink:href="#a"/>
  <linearGradient id="d" x1="358.5" x2="354.55" y1="97.353" y2="181.03" gradientTransform="matrix(1 0 0 1.6376 .44487 56.638)" gradientUnits="userSpaceOnUse" xlink:href="#a"/>
 </defs>
 <path transform="translate(2)" d="m683.53 51.656a0.81041 0.81041 0 0 0 -0.3125 0.09375s-21.899 12.134-32.094 19.625c-10.254 7.5348-18.741 17.095-28.5 24.938-10.952 8.8008-21.245 18.746-33.656 24.844-7.7788 3.8217-16.285 8.4379-24.406 7-3.7355-0.66142-6.8662-2.9232-9.9062-5.6875s-5.967-5.987-9.375-8.375c-11.686-8.1887-22.906-17.412-35.688-24.094-11.322-5.9185-23.344-10.804-35.781-13.844-14.512-3.5469-29.759-6.7107-44.75-4.9375-3.9375 0.46576-9.295 2.4282-13.719 4.25s-7.875 3.5312-7.875 3.5312a0.81041 0.81041 0 0 0 -0.28125 1.25s0.27978 0.32582 0.40625 0.46875c-0.97123 0.51871-1.8822 1.1681-2.7188 1.8438-1.1458 0.92545-2.2227 1.7032-3.2812 1.875-2.6276 0.42638-5.4894-0.71312-8.5312-1.25-3.8873-0.68609-7.8323-2.3385-12.094-2.5312-3.7097-0.16777-7.3492 0.52679-10.875 1.2812-7.7536 1.6592-14.54 6.484-21.906 6.9062-2.5673 0.14717-5.2026-0.70908-7.9062-1.5938s-5.4918-1.7993-8.4688-1.5625c-2.6646 0.21199-4.9829 1.4587-7.2188 2.625s-4.3966 2.2526-6.625 2.4062c-2.7112 0.18693-5.5218-1.1217-8.5625-1.8438-2.2712-0.53931-4.6803-1.8591-7.1562-2.875-1.8371-0.75374-3.7366-1.3363-5.6875-1.25 0.99162-1.0954 2.4062-2.6875 2.4062-2.6875a0.81041 0.81041 0 0 0 -0.25 -1.2812s-3.4748-1.7095-7.9062-3.5312-9.7813-3.7843-13.719-4.25c-14.991-1.7732-30.238 1.3906-44.75 4.9375-12.437 3.0398-24.46 7.9253-35.781 13.844-12.782 6.6819-24.001 15.905-35.688 24.094-3.4085 2.3884-6.3115 5.6108-9.3438 8.375s-6.171 5.0261-9.9062 5.6875c-8.1185 1.4375-16.658-3.2092-24.438-7.0312-12.413-6.0983-22.705-16.012-33.656-24.812-9.759-7.8423-18.246-17.403-28.5-24.938-10.195-7.4909-32.094-19.625-32.094-19.625a0.81041 0.81041 0 0 0 -1.0312 1.25s18.964 22.552 28.469 33.812c12.978 15.374 23.821 33.044 39.25 46.344 11.127 9.592 23.514 18.805 37.656 23.281 9.7264 3.0785 20.771 4.5829 30.719 1.7812 8.2042-2.3106 14.823-7.674 21.219-13.312s12.596-11.569 19.875-15.219c15.078-7.5605 31.044-15.065 47.688-15.906 6.2909-0.31811 15.84 1.7863 23.719 4s14.125 4.5 14.125 4.5a0.81041 0.81041 0 0 0 1.0938 -0.84375s-0.0719-0.72217-0.0937-0.96875c1.0197 0.66378 2.153 0.90646 3.1875 1.125 1.1084 0.23416 2.0922 0.46094 2.8125 0.96875 0.84948 0.59885 1.5502 1.4502 2.2188 2.375-0.27749 0.18609-0.57021 0.37294-0.84375 0.5625-1.2049 0.83499-1.5873 2.1625-1.8438 3.375s-0.41677 2.3974-0.875 3.1562c-0.43295 0.71695-1.409 1.4085-2.375 2.1875s-2.0092 1.7428-2.0625 3.2188c-0.0671 1.8602 0.90864 3.4102 2.0938 4.7188s2.6119 2.4423 3.7188 3.4688c0.92783 0.86047 2.1164 1.1672 3.0625 1.5312s1.5676 0.70438 1.7812 1.2812c0.48935 1.3215 4e-3 2.7242-0.8125 4.3438s-1.9402 3.3275-2.375 5.25c-0.65697 2.9052-1.2812 5.9257-1.2812 9 0 2.0386-0.56873 4.7775 0.15625 7.125-1.0985 1.9785-2.462 3.9718-3.1562 6.25a0.81041 0.81041 0 0 0 0 0.0312l-0.0937 0.34375c-0.0226 0.0843-0.0439 0.17221-0.0625 0.25-2e-3 9e-3 2e-3 0.0222 0 0.0312-0.43366 1.4798-2.1428 7.2638-2.2812 10.875-0.12562 3.2774 0.39263 6.5703 1.2812 9.6875 1.2629 4.43 2.6631 9.2402 5.8125 12.906 1.6436 1.9132 4.9902 3.5538 6.3438 4.2188 3.2528 2.6919 6.695 5.1194 8.2188 8.5 5.4366 12.062 2.1548 26.713 4.875 40.281 1.4007 6.9866 3.2852 13.916 5.8125 20.594 3.1087 8.2146 9.4567 14.92 11.094 23 1.7624 8.6984-2.048 18.056-1.375 27.5 0.63176 8.8668 5.6484 17.007 4.9062 25.219-0.104 1.1511-0.86153 2.3515-1.6562 3.6562s-1.6397 2.7598-1.4688 4.5c0.41145 4.1878 3.3772 7.8574 6.5312 10.344 3.3777 2.6628 7.6508 4.1675 11.906 4.7812a0.81041 0.81041 0 0 0 0.8125 -0.375l1.2188-1.8125a0.81041 0.81041 0 0 0 0.09365 -0.28115l1.25-6.3125 1.2812-6.9062a0.81041 0.81041 0 0 0 0.0312 -0.15625v-22.031l1.25-11.219a0.81041 0.81041 0 0 0 0 -0.0937v-12.406h2.4062l-0.90625 8.5312a0.81041 0.81041 0 0 0 0 0.15625l0.65625 6.9062 0.625 8.6875v0.125l-0.1875 2.25-0.4375 5.1875a0.81041 0.81041 0 0 0 0 0.0625v16.344a0.81041 0.81041 0 0 0 0.0313 0.15615l1.25 6.3125a0.81041 0.81041 0 0 0 0.0312 0.125l1.75 4.6875a0.81041 0.81041 0 0 0 0.78125 0.53125c3.6069-0.0895 7.7194 1.3626 11.656-0.0312 3.9658-1.404 7.5541-4.2843 9.75-7.875 1.6328-2.6699 1.9616-5.9229 1.9062-8.875-0.0379-2.0156-0.72245-3.8694-1.375-5.625s-1.2731-3.4404-1.3125-5.0938c-0.0652-2.7402 1.4239-5.5635 1.7812-8.7812 0.69643-6.2714 0.45475-12.57 0.4375-18.781-0.0142-5.1024-0.571-10.126-0.4375-15.094 0.0958-3.5577 0.28592-7.0846 0.90625-10.531 1.3611-7.5623 2.9668-15.192 6.1562-22.062 0.9802-2.1116 2.6964-3.9804 4.4062-5.9375s3.4045-4.0308 4.0625-6.6875c0.38285-1.5459 0.0353-3.0212-0.3125-4.375s-0.68173-2.6106-0.53125-3.7188c0.0618-0.45563 0.60485-1.0568 0.84375-2.125 1.4034-6.2767 0.55818-12.919 0.0937-19.312s-0.55043-12.532 2.0938-17.906c0.70721-1.4373 2.1289-2.443 3.7812-3.4375 1.3895-0.83631 2.879-1.7028 4.1875-2.7812a0.81041 0.81041 0 0 0 1.1562 -0.3125l2.5314-5.0313a0.81041 0.81041 0 0 0 0.0625 -0.15625l1.875-6.2812a0.81041 0.81041 0 0 0 0.0312 -0.21875v-6.6562l3.0625-5.5312a0.81041 0.81041 0 0 0 0.0937 -0.4375l-0.625-11.875c-6e-3 -0.27504-6e-3 -0.57245-0.0625-0.90625-0.73584-4.3423-4.4677-7.2356-6.3438-10.5-0.50339-0.876-1.0117-1.7108-1.5312-2.5625 2.1174-3.1602 2.1247-7.593 1.5312-11.125-0.37017-2.2033-2.2011-3.7505-3.625-5.1875-0.71196-0.71849-1.338-1.4082-1.7188-2.0625s-0.52586-1.2041-0.375-1.875c0.0787-0.34987 0.26689-0.591 0.59375-0.84375s0.78906-0.49439 1.3438-0.71875c1.1094-0.44871 2.5122-0.82955 3.5312-1.8438 0.9555-0.95087 2.1933-1.9778 3.1875-3.1875s1.7878-2.6428 1.7188-4.3125c-0.06-1.4496-1.0865-2.416-2-3.1875s-1.7956-1.4501-2.125-2.1562c-0.32103-0.68821-0.2513-1.8185-0.25-3.0312s-0.10277-2.6426-1.25-3.5625c-0.60447-0.48465-1.2232-0.94579-1.8438-1.4062 2.2269-2.0739 4.7261-3.8411 7.4062-5.3125 1.38-0.75761 3.4911-0.95954 5.5-1.4375-0.1447 2.4852-0.34375 4.8125-0.34375 4.8125a0.81041 0.81041 0 0 0 1.0938 0.84375s6.2457-2.2863 14.125-4.5 17.428-4.3181 23.719-4c16.644 0.84162 32.609 8.3458 47.688 15.906 7.2792 3.6499 13.48 9.5803 19.875 15.219s13.014 11.002 21.219 13.312c9.9478 2.8016 20.992 1.2972 30.719-1.7812 14.143-4.4763 26.529-13.689 37.656-23.281 15.429-13.3 26.272-30.97 39.25-46.344 9.5052-11.26 28.469-33.812 28.469-33.812a0.81041 0.81041 0 0 0 -0.71875 -1.3438zm-333.31 283.5-0.5625 3.7188a0.81041 0.81041 0 0 0 0 0.0312 0.81041 0.81041 0 0 0 0 0.0937l-0.9375 6.1562a0.81041 0.81041 0 0 0 0 0.125v0.0312l0.0312 1.8438 0.0937 6.3125 0.1875 11.594-2.625 2.125-3.5625-8.25-0.4375-12.719v-0.0312l0.0625-2.7812 2.625-2.875a0.81041 0.81041 0 0 0 0 -0.0312 0.81041 0.81041 0 0 0 0.0937 -0.0937 0.81041 0.81041 0 0 0 0 -0.0312l5.0312-5.2188zm12.688 1 3.9062 2.625 0.0312 0.0312 3.5312 3.7188v5.4687a0.81041 0.81041 0 0 0 0.0312 0.21875l1.75 5.8438-0.40625 7.3125-3.5312 2.9062a0.81041 0.81041 0 0 0 -0.15625 0.1875l-2.25 3.4688-2.6875 0.4375 0.125-5.0938a0.81041 0.81041 0 0 0 0 -0.0625l-0.1875-8.2812-0.125-5.875-0.0312-1.25v-11.656z" opacity=".36187" stroke="#000"/>
 <g transform="translate(-512.61 -16.752)">
  <path d="m840.53 234.29 12.583 86.821 37.748-7.5496 1.2583-89.337z" stroke="#000"/>
  <path d="m808.96 194.25c29.544 23.679 84.791 16.171 113.24-8.8079 3.06-2.6864 3.1912-7.938 2.5166-11.954-0.60784-3.6178-6.467-5.858-5.6622-9.4371 0.49766-2.2131 4.0544-2.1747 5.6622-3.7748 1.9716-1.962 4.7772-4.1414 4.6622-6.9205-0.0889-2.148-3.1242-3.0848-4.0331-5.0331-0.9041-1.9382 0.41027-4.9535-1.2583-6.2914-30.112-24.144-84.038-19.468-115.76 2.5165-1.8565 1.2865-1.349 4.3579-2.5166 6.2914-1.1397 1.8873-4.2119 2.8298-4.2914 5.0331-0.11262 3.1213 3.2596 5.4258 5.5496 7.5496 1.4506 1.3453 4.3461 1.2904 5.0331 3.1457 1.2208 3.2966-2.3703 6.6374-3.1457 10.066-0.65414 2.8927-1.2583 5.8421-1.2583 8.8079s-1.056 6.9531 1.2583 8.8079z" fill="#afae8e"/>
  <path d="m804.67 199.05s-2.2562 7.4684-2.404 11.324c-0.12155 3.1712 0.38826 6.3851 1.2583 9.437 1.2609 4.4231 2.6652 9.094 5.6622 12.583 1.7612 2.0501 6.8079 4.404 6.8079 4.404s2.0706-18.258-1.2583-26.424c-1.9067-4.6768-10.066-11.324-10.066-11.324z" fill="#4c4233"/>
  <path d="m931.12 198.42 0.62913 11.954-3.1457 5.6622v6.9205l-1.8874 6.2914-2.5166 5.0331-10.695-19.503 11.324-17.616z" fill="#4c4233"/>
  <path d="m924.78 97.406c-2.9095-0.0905-5.1812 3.9758-8.2188 4.4688-2.9275 0.47507-5.8919-0.73452-8.8125-1.25-4.0099-0.70773-7.901-2.3473-11.969-2.5312-3.586-0.16218-7.1773 0.49885-10.688 1.25-7.5236 1.61-14.35 6.4972-22.031 6.9375-5.5433 0.31777-10.809-3.5966-16.344-3.1562-4.8938 0.38934-8.9461 4.6936-13.844 5.0312-2.9955 0.20653-5.8911-1.1813-8.8125-1.875-4.85-1.1516-9.7229-5.3062-14.469-3.7812-4.4051 1.4155-6.8161 6.5439-8.875 10.688-2.9131 5.8628-5.8252 12.727-4.4375 19.125 0.51556 2.3768 2.4709 4.3502 4.4375 5.7812 1.7825 1.2971 4.417 0.94858 6.2188 2.2188 1.7226 1.2143 2.9231 3.0946 4 4.9062 2.209 3.7164 3.833 7.812 4.9062 12 0.96349 3.7596 1.6712 7.6952 1.3438 11.562-0.31273 3.694-1.8256 7.2154-3.125 10.688-1.4883 3.977-3.6371 7.6742-5.3438 11.562-1.5496 3.5304-4.5292 6.8018-4.4375 10.656 0.0742 3.1167 2.966 5.5276 4 8.4688 1.0617 3.0199 1.9899 6.1508 2.2188 9.3438 0.23416 3.2674-1.8992 6.6697-0.875 9.7812 2.2332 6.7844 11.284 9.5196 14.219 16.031 5.5855 12.392 2.2343 27.141 4.9062 40.469 1.3934 6.9502 3.2723 13.839 5.7812 20.469 3.0283 8.002 9.4261 14.739 11.125 23.125 1.8278 9.0214-1.9981 18.412-1.3438 27.594 0.61193 8.5866 5.681 16.77 4.9062 25.344-0.25777 2.8523-3.405 5.1498-3.125 8 0.37804 3.8484 3.182 7.4185 6.2188 9.8125 3.23 2.5463 7.3831 3.9955 11.531 4.5938l1.2188-1.8125 1.25-6.3125 1.2812-6.9062v-22.031l1.25-11.312v-17l4.4062 1.2812-1.2812 11.938 0.65625 6.9062 0.625 8.8125-0.625 7.5625v16.344l1.25 6.3125 1.75 4.6875c3.8179-0.0947 7.8248 1.2992 11.406 0.0312 3.7768-1.3371 7.2534-4.1445 9.3438-7.5625 1.5022-2.4563 1.8352-5.5588 1.7812-8.4375-0.0687-3.6678-2.6002-7.0201-2.6875-10.688-0.072-3.0237 1.4474-5.9002 1.7812-8.9062 0.68762-6.1918 0.45494-12.458 0.4375-18.688-0.0141-5.044-0.57301-10.083-0.4375-15.125 0.096-3.57 0.27365-7.1414 0.90625-10.656 1.3639-7.5779 2.9768-15.266 6.2188-22.25 2.1127-4.5513 7.2312-7.5981 8.4375-12.469 0.6456-2.6069-1.2363-5.3388-0.875-8 0.1074-0.7913 0.7007-1.4394 0.875-2.2188 2.7229-12.178-3.259-26.179 2.25-37.375 1.9954-4.0554 8.3448-4.7933 10.219-8.9062 1.4756-3.2386-0.2523-7.1063 0-10.656 0.2974-4.1837 0.45935-8.4882 1.7812-12.469 0.5856-1.7634 2.01-3.1329 2.6562-4.875 0.7385-1.9906 1.6984-4.1567 1.3438-6.25-0.6671-3.9367-4.2292-6.7569-6.2188-10.219-2.0167-3.5093-4.4052-6.8811-5.7812-10.688-2.0566-5.6886-2.9665-11.762-3.5625-17.781-0.3799-3.8368-1.3125-7.9373 0-11.562 1.1828-3.267 4.1136-5.6633 6.6562-8.0312 2.2816-2.1248 4.8608-3.9371 7.5938-5.4375 2.9699-1.6304 7.8742-0.77548 9.4375-3.7812 3.3799-6.4985-1.871-14.798-5.0312-21.406-2.0631-4.3142-4.1488-10.255-8.8125-11.312-0.2-0.0454-0.3685-0.0565-0.5625-0.0625zm-52.281 137.16a0.97672 0.97672 0 0 1 0.0937 0 0.97672 0.97672 0 0 1 0.375 0.0937l3.125 1.3438a0.97672 0.97672 0 0 1 0.59375 1.0312l-0.875 6.7812 6.0938 10.844a0.97672 0.97672 0 0 1 0.125 0.4375l0.4375 9.3438a0.97672 0.97672 0 0 1 0 0.0312v14.687l0.875 18.219a0.97672 0.97672 0 0 1 0 0.0312v13.156l-5.625-1.7188-22.188 3.8125-0.8125-28.812-2.1875-6.5938a0.97672 0.97672 0 0 1 -0.0312 -0.46855l3.125-20.469a0.97672 0.97672 0 0 1 0.0312 -0.0937l2.2188-8a0.97672 0.97672 0 0 1 0.0312 -0.0937l4-10.25a0.97672 0.97672 0 0 1 1.3438 -0.53125l4.6562 2.3438 3.9375-4.75a0.97672 0.97672 0 0 1 0.5625 -0.34375 0.97672 0.97672 0 0 1 0.0937 -0.0312zm-6.25 114.78-0.9375 6.3125-0.9375 6.2812 0.3125 20.125-3.7812 3.0312-4.0312-9.3438-0.4375-12.906 0.0625-3.125 2.8438-3.125 6.9062-7.25zm10.688 1.9062 5.3125 3.5938 3.7812 4v5.7812l1.7812 6-0.4375 7.7812-3.7812 3.125-2.4688 3.7812-4 0.65625 0.15625-6.0938-0.34375-15.438v-13.188z" fill="url(#n)"/>
  <path d="m870.81 312.19c-5.473 0.0829-11.086 3.4782-14.469 7.7812-4.168 5.3017-4.5017 12.845-5.0938 19.562-0.81628 9.2618-3.5832 20.547 2.2188 27.812 0.76945 0.96353 1.9186 1.4024 3.1875 1.6562l-0.21875-6.1875 0.0625-3.125 2.8438-3.125 6.9062-7.25-0.9375 6.3125-0.9375 6.2812 0.125 8.1875c1.0292 0.0896 2.061 0.162 3.0938 0.21875v-2.6562l1.25-11.312v-17l4.4062 1.2812-1.2812 11.938 0.65625 6.9062 0.625 8.8125-0.1875 2.375 0.1875 0.0312c1.2356 0.12929 2.5355 0.49067 3.8438 0.90625l-0.15625-7.1875v-13.188l5.3125 3.5938 3.7812 4v5.7812l1.7812 6-0.1875 3.0938c0.74527-0.18018 1.4369-0.49326 2.0938-1 1.3034-1.0056 0.50938-3.2665 0.65625-4.9062 0.92031-10.275 2.4804-20.653 1.3438-30.906-0.62626-5.6489-0.83922-12.069-4.4375-16.469-3.8837-4.7484-10.335-8.3117-16.469-8.2188z" fill="url(#m)"/>
  <path d="m856.25 255.47 2.3012-8.0076 4.1422-10.232 5.523 2.6692 4.6025-5.3384 3.2217 1.3346-0.92049 7.1179 6.4434 11.122 0.46024 9.3422v14.681l0.9205 18.24v16.015l-1.3807 28.027-4.1422-7.1179h-3.2217l0.46025 9.7871h-5.523l-8.2844-7.5627v6.673l-4.6025-27.137-0.92049-32.475-2.3012-6.673z" fill="#bdb6a4"/>
  <path d="m924.78 97.406c-2.9095-0.0905-5.1812 3.9758-8.2188 4.4688-2.9275 0.47507-5.8919-0.73452-8.8125-1.25-4.0099-0.70773-7.901-2.3473-11.969-2.5312-3.586-0.16218-7.1773 0.49885-10.688 1.25-7.5236 1.61-14.35 6.4972-22.031 6.9375-5.5433 0.31777-10.809-3.5966-16.344-3.1562-4.8938 0.38934-8.9461 4.6936-13.844 5.0312-2.9955 0.20653-5.8911-1.1813-8.8125-1.875-4.85-1.1516-9.7229-5.3062-14.469-3.7812-4.4051 1.4155-6.8161 6.5439-8.875 10.688-0.12613 0.25385-0.24922 0.52376-0.375 0.78125l12.5 4.5625h26.438l33.969-8.8125h32.719l25.344-6.75c-1.4668-2.618-3.2723-4.8884-5.9688-5.5-0.2-0.0454-0.3685-0.0565-0.5625-0.0625z" fill="url(#l)"/>
  <path d="m824.78 158.05 1.7795 21.354 16.015 53.384 4.4487-3.5589-5.3384-29.361-8.8974-22.243z" fill="url(#k)"/>
  <path d="m890.62 227.45 5.3384-25.802 5.3384-22.243 3.5589-19.574 5.3384 17.795-0.88973 20.464-4.4487 15.125-8.8974 5.3384z" fill="url(#j)"/>
  <path d="m537.4 70.855s18.968 22.551 28.471 33.81c13.031 15.437 23.847 33.076 39.148 46.266 11.096 9.5651 23.402 18.712 37.369 23.133 9.6302 3.048 20.528 4.5178 30.251 1.7795 15.997-4.5052 26.072-21.022 40.928-28.472 15.091-7.5667 31.186-15.163 48.046-16.015 13.016-0.65815 38.148 8.5589 38.148 8.5589s-1.6816-16.827 1-24.574c2.3187-6.6986 12.456-17.236 12.456-17.236s-13.842-6.7883-21.354-7.6768c-14.815-1.7524-29.995 1.3554-44.487 4.8974-12.359 3.0207-24.314 7.9004-35.589 13.795-12.683 6.6301-23.869 15.803-35.589 24.015-6.6072 4.6297-11.63 12.829-19.574 14.236-8.5042 1.5058-17.161-3.3096-24.913-7.1179-12.564-6.1729-22.898-16.144-33.81-24.913-9.83-7.8994-18.309-17.446-28.471-24.913-10.083-7.409-32.03-19.574-32.03-19.574z" fill="url(#i)"/>
  <path d="m1198.5 69.076s-18.968 22.551-28.472 33.81c-13.031 15.437-23.846 33.076-39.148 46.266-11.096 9.5651-23.402 18.712-37.369 23.133-9.6303 3.048-20.528 4.5178-30.251 1.7795-15.997-4.5052-26.072-21.022-40.928-28.472-15.091-7.5667-31.186-15.163-48.046-16.015-13.016-0.65815-38.148 8.5589-38.148 8.5589s1.6816-16.827-1-24.574c-2.3187-6.6986-12.456-17.236-12.456-17.236s13.842-6.7883 21.354-7.6768c14.815-1.7524 29.995 1.3554 44.487 4.8974 12.359 3.0207 24.314 7.9004 35.589 13.795 12.683 6.6301 23.869 15.803 35.589 24.015 6.6072 4.6297 11.63 12.829 19.574 14.236 8.5042 1.5058 17.161-3.3096 24.913-7.1179 12.564-6.1729 22.898-16.144 33.81-24.913 9.83-7.8994 18.309-17.446 28.472-24.913 10.083-7.409 32.03-19.574 32.03-19.574z" fill="url(#h)"/>
  <path d="m783.5 89.938c-12.118-0.06942-24.35 2.4972-36.125 5.375-12.359 3.0207-24.318 7.9182-35.594 13.812-12.683 6.6301-23.873 15.787-35.594 24-6.6072 4.6297-11.618 12.843-19.562 14.25-8.5042 1.5058-17.155-3.3167-24.906-7.125-12.564-6.1729-22.9-16.137-33.812-24.906-2.3599-1.8964-4.6288-3.9028-6.875-5.9375 5.7095 7.2068 11.572 13.985 18.188 19.688 10.855 9.3568 22.516 17.894 35.094 21.875 8.8714 2.8079 18.647 3.9569 26.594 1.7188 6.3729-1.7948 12.137-6.2812 18.375-11.781s12.804-11.936 21.406-16.25c15.185-7.6139 32.052-15.748 50.625-16.688 8.2197-0.41564 17.836 1.954 26 4.25 3.0989 0.87149 3.2092 1.0194 5.5625 1.7812-4e-3 -0.20397-0.0278-0.16792-0.0312-0.375-0.09-5.4616-0.0689-11.759 1.875-17.375 0.57093-1.6494 1.341-3.2008 2.1875-4.6875-1.8233-0.53851-3.5468-0.94941-5.0312-1.125-2.7778-0.32858-5.5785-0.48398-8.375-0.5z" fill="url(#g)"/>
  <path d="m952.38 88.156c-2.7965 0.01602-5.5972 0.17142-8.375 0.5-1.685 0.19931-3.6868 0.69389-5.7812 1.3438 1.679 2.3733 3.2336 4.9734 4.2812 8 1.8914 5.4642 1.9676 11.156 1.9062 16.312 1.8055-0.56298 1.6722-0.62563 3.7812-1.2188 8.2214-2.3121 17.872-4.7472 26.469-4.3125 18.95 0.95823 35.951 9.2194 51.156 16.844 8.8636 4.4443 15.488 10.996 21.688 16.469s11.83 9.7752 17.844 11.469c7.5552 2.1279 17.077 1.0362 25.781-1.7188 12.274-3.8849 23.829-12.288 34.625-21.594 8.7415-7.5353 16.211-17.037 23.844-27-3.7877 3.5378-7.5922 7.0717-11.625 10.312-10.912 8.769-21.248 18.733-33.813 24.906-7.7515 3.8083-16.402 8.6308-24.906 7.125-7.9442-1.4066-12.955-9.6203-19.562-14.25-11.72-8.2126-22.911-17.37-35.594-24-11.275-5.8943-23.234-10.761-35.594-13.781-11.775-2.8778-24.007-5.4757-36.125-5.4062z" fill="url(#f)"/>
 </g>
 <path d="m356.75 101.64c0.0398 5.74-0.0834 11.482-0.13526 17.223-0.0499 9.1544-0.13419 18.309-0.15682 27.463-2e-3 4.8544 0.0272 9.7088 0.0614 14.563l-1.4741 0.75107c0.0358-4.8766 0.0679-9.7532 0.0696-14.63-0.0104-9.1276-0.0936-18.255-2e-3 -27.383 0.0442-5.6993 0.18437-11.405-0.0163-17.102l1.6562-0.88549z" fill="url(#e)" opacity=".27425"/>
 <path d="m357.19 223.09c0.0398 9.4001-0.0834 18.804-0.13526 28.205-0.0499 14.992-0.13419 29.983-0.15682 44.975-2e-3 7.9498 0.0272 15.899 0.0614 23.849l-1.4741 1.23c0.0358-7.9861 0.0679-15.972 0.0696-23.959-0.0104-14.948-0.0936-29.895-2e-3 -44.843 0.0442-9.3334 0.18437-18.677-0.0163-28.007l1.6562-1.4501z" fill="url(#d)" opacity=".3913"/>
</svg>
