<?xml version="1.0" encoding="utf-8"?>
<!-- Generator: Adobe Illustrator 21.1.0, SVG Export Plug-In . SVG Version: 6.00 Build 0)  -->
<svg version="1.1" id="Calque_1" xmlns="http://www.w3.org/2000/svg" xmlns:xlink="http://www.w3.org/1999/xlink" x="0px" y="0px"
	 viewBox="0 0 425.2 311.811" enable-background="new 0 0 425.2 311.811" xml:space="preserve">
<g>
	<path fill="#AFBEC4" d="M400.174,98.228c8.824,6.172,17.049,15.362,16.008,26.225c-0.425,5.396-2.288,9.909-5.117,13.37
		c-6.582,8.034-18.369,10.365-29.45,4.809c5.072-3.841,5.526-10.379,3.371-16.155c5.086-3.576,9.221-8.385,8.751-14.615
		c-0.146-5.028-8.589-18.47-13.985-18.397C387.185,90.957,394.999,94.725,400.174,98.228z"/>
	<linearGradient id="SVGID_1_" gradientUnits="userSpaceOnUse" x1="310.3332" y1="237.5305" x2="397.6798" y2="237.5305">
		<stop  offset="0" style="stop-color:#254156"/>
		<stop  offset="1" style="stop-color:#33597D"/>
	</linearGradient>
	<path fill="url(#SVGID_1_)" d="M323.666,226.674c1.628-8.532,5.19-15.789,15.891-12.549c6.362,1.715,15.378,8.342,19.028,15.54
		l3.313-0.763c3.796,2.405,9.089,1.393,11.874-1.509l3.944,0.482c1.304-1.671,2.61-3.444,3.914-5.072
		c2.844-3.532,5.732-6.421,8.84-6.421c0.865,0,1.744,0.22,2.653,0.719c6.319,2.946,5.586,17.445,0.747,20.89
		c4.736,3.386,1.966,13.926-2.462,17.899c-0.381,0.366-0.777,0.704-1.158,0.996c-6.963,5.293-13.633-1.041-20.567-3.078
		c-8.604-2.227-13.53,7.55-22.722,7.917c-7.857,0-17.225-4.456-19.863-12.035l-1.539-3.577c-0.733,0.014-1.539-0.073-2.389-0.263
		c-6.186-1.349-14.439-7.623-12.564-13.677c0.014-0.03,0.014-0.059,0.03-0.089C311.762,228.081,319.635,224.123,323.666,226.674z"/>
	<linearGradient id="SVGID_2_" gradientUnits="userSpaceOnUse" x1="350.833" y1="151.0916" x2="361.0946" y2="109.3123">
		<stop  offset="0" style="stop-color:#254156"/>
		<stop  offset="1" style="stop-color:#33597D"/>
	</linearGradient>
	<path fill="url(#SVGID_2_)" d="M353.776,113.942c4.149-0.806,8.312-0.644,12.211,2.053l0.263,0.44
		c1.364-0.806,2.756-1.261,4.134-1.407c6.245-0.733,12.123,4.852,14.601,11.448c2.154,5.776,1.701,12.314-3.371,16.155
		c-0.308-0.162-0.616-0.322-0.923-0.484l-1.862-0.425c-5.864,4.999-13.882,6.084-21.447,2.77l0.601-1.407
		c-4.134,1.98-9.03,2.551-13.193,0.557l-0.132-0.205c-2.405,1.466-5.175,2.286-8.093,2.258c-4.104-0.059-12.211-3.577-13.765-8.034
		c0.571-0.057,1.128-0.146,1.671-0.263l-0.176-0.85c5.351-1.172,8.781-7.022,10.116-11.962c-0.425-1.832-0.411-3.532-0.073-5.056
		C336.068,111.802,346.402,108.386,353.776,113.942z"/>
	<linearGradient id="SVGID_3_" gradientUnits="userSpaceOnUse" x1="348.6012" y1="276.3089" x2="395.1891" y2="276.3089">
		<stop  offset="0" style="stop-color:#002A47"/>
		<stop  offset="1" style="stop-color:#00315A"/>
	</linearGradient>
	<path fill="url(#SVGID_3_)" d="M377.466,282.1c-0.059,1.276-0.322,2.492-0.806,3.563c-1.994,4.471-7.461,3.869-11.567,2.507
		c-7.901-2.727-13.354-10.32-16.389-17.899l-0.103-1.393c0.998-0.044,1.921-0.162,2.786-0.352c4.442-1.071,8.107-4.369,12.519-4.999
		c5.702-0.557,7.3,2.155,11.58,3.709c2.61,0.762,7.522,0.014,11.274-1.715c5.424,1.48,9.279,9.367,8.267,14.586
		c-1.788,9.205-12.402,6.245-17.502,1.993H377.466z"/>
	<linearGradient id="SVGID_4_" gradientUnits="userSpaceOnUse" x1="370.092" y1="183.4341" x2="387.1855" y2="183.4341">
		<stop  offset="0" style="stop-color:#799BAC"/>
		<stop  offset="1" style="stop-color:#DBE7ED"/>
	</linearGradient>
	<path fill="url(#SVGID_4_)" d="M370.209,195.449c3.651-3.138,6.524-8.649,7.755-11.948c2.008-5.483,2.976-9.529,4.647-13.414
		c9.016,12.667,4.633,28.527-12.519,26.52L370.209,195.449z"/>
	<linearGradient id="SVGID_5_" gradientUnits="userSpaceOnUse" x1="321.7456" y1="198.1803" x2="338.1143" y2="178.3902">
		<stop  offset="0" style="stop-color:#DBE7ED"/>
		<stop  offset="1" style="stop-color:#799BAC"/>
	</linearGradient>
	<path fill="url(#SVGID_5_)" d="M338.428,187.415c1.583,3.005,4.309,7.212,7.403,9.836c-8.209,7.403-23.001,5.688-27.458-5.262
		c-2.916-8.018,1.935-19.936,7.315-26.768C331.567,171.642,336.141,182.637,338.428,187.415z"/>
	<linearGradient id="SVGID_6_" gradientUnits="userSpaceOnUse" x1="265.5781" y1="184.3961" x2="391.6488" y2="145.5488">
		<stop  offset="0" style="stop-color:#254156"/>
		<stop  offset="1" style="stop-color:#33597D"/>
	</linearGradient>
	<path fill="url(#SVGID_6_)" d="M412.37,138.234l-1.304-0.411c-6.582,8.034-18.369,10.365-29.45,4.809
		c-0.308-0.162-0.616-0.322-0.923-0.484l-1.862-0.425c-5.864,4.999-13.882,6.084-21.447,2.77l0.601-1.407
		c-4.134,1.98-9.03,2.551-13.193,0.557l-0.132-0.205c-2.405,1.466-5.175,2.286-8.093,2.258c-4.104-0.059-12.211-3.577-13.765-8.034
		c-11.434,1.247-27.75-6.757-35.065-12.914c-0.719-0.616-1.379-1.245-2.009-1.905c-5.6-5.791-8.283-12.768-17.621-14.469
		c-6.508-0.792-17.488,0.336-19.173,7.226l1.744,1.496c-3.005,3.562-3.284,10.964-1.994,15.656c0.338,1.231,0.777,2.272,1.306,3.005
		l0.703-0.16c2.772,13.736,21.726,17.283,35.286,14.072l0.806,3.254c-10.071,7.066-28.894,28.909-22.076,40.445l2.228-0.043
		c0.089,4.266,1.818,9.059,4.09,13.032c1.847,3.24,4.076,5.937,6.098,7.36c1.539,1.142,3.152,2.154,4.823,3.092
		c9.425,5.337,20.333,8.077,28.689,15.275c1.128-4.001,9-7.96,13.032-5.409c1.628-8.532,5.19-15.789,15.891-12.549
		c6.362,1.715,15.378,8.342,19.028,15.54l3.313-0.763c3.796,2.405,9.089,1.393,11.874-1.509l3.944,0.482
		c1.304-1.671,2.61-3.444,3.914-5.072c2.844-3.532,5.732-6.421,8.84-6.421l2.301-0.616c0.968-9.543,8.723-15.67,7.139-26.239
		c-0.982-4.706-4.236-11.699-8.488-15.994l0.206-0.206c-3.724-3.693-1.905-12.768,3.444-14.659l0.117-0.644
		c5.234,0.879,11.039,2.243,15.744-1.964C416.958,149.844,413.499,141.341,412.37,138.234z M318.373,191.989
		c-2.916-8.018,1.935-19.936,7.315-26.768c5.878,6.421,10.452,17.415,12.74,22.194c1.583,3.005,4.309,7.212,7.403,9.836
		C337.622,204.654,322.83,202.939,318.373,191.989z M370.092,196.608l0.117-1.158c3.651-3.138,6.524-8.649,7.755-11.948
		c2.008-5.483,2.976-9.529,4.647-13.414C391.627,182.754,387.244,198.615,370.092,196.608z"/>
	<linearGradient id="SVGID_7_" gradientUnits="userSpaceOnUse" x1="321.5614" y1="257.379" x2="391.808" y2="257.379">
		<stop  offset="0" style="stop-color:#1F3A58"/>
		<stop  offset="1" style="stop-color:#092440"/>
	</linearGradient>
	<path fill="url(#SVGID_7_)" d="M325.557,246.112l1.539,3.577c2.638,7.579,12.007,12.035,19.863,12.035
		c9.192-0.366,14.118-10.144,22.722-7.917c6.934,2.037,13.604,8.37,20.567,3.078c3.446,3.606,0.689,6.73-3.489,8.635
		c-3.752,1.729-8.664,2.477-11.274,1.715c-4.28-1.555-5.878-4.266-11.58-3.709c-4.412,0.63-8.077,3.928-12.519,4.999
		c-0.865,0.19-1.788,0.308-2.786,0.352c-11.742,0.63-31.342-8.18-26.196-21.183l0.763-1.847
		C324.018,246.039,324.824,246.126,325.557,246.112z"/>
	<path fill="#AFBEC4" d="M334.338,119.528c-0.338,1.525-0.352,3.224,0.073,5.056c-1.334,4.94-4.764,10.79-10.116,11.962l0.176,0.85
		c-0.543,0.117-1.099,0.206-1.671,0.263c-11.434,1.247-27.75-6.757-35.065-12.914c-0.719-0.616-1.379-1.245-2.009-1.905l0.381-0.366
		c-7.257-10.891,9.002-28.337,18.031-33.512c11.053-5.981,20.89-4.25,31.635,0.176c-17.136,3.503-24.202,28.63-2.316,30.287
		L334.338,119.528z"/>
	<linearGradient id="SVGID_8_" gradientUnits="userSpaceOnUse" x1="217.5453" y1="204.0031" x2="281.9455" y2="204.0031">
		<stop  offset="0" style="stop-color:#04223D"/>
		<stop  offset="1" style="stop-color:#001730"/>
	</linearGradient>
	<path fill="url(#SVGID_8_)" d="M277.122,213.715c1.539,1.142,3.152,2.154,4.823,3.092c-6.303-1.744-18.529-5.702-22.429-0.85
		c-0.439,0.543-0.777,1.188-0.982,1.964l-0.587,0.059c-5.248-2.345-14.161-5.131-18.822-4.631
		c-7.476,0.893-11.274,6.376-19.878,4.149l-0.22,0.073c-1.041-3.064-1.715-6.113-1.407-8.811c9.103-2.857,16.52-9.836,22.003-18.778
		c1.539,5.161,8.356,10.144,13.546,9.353c3.576,5.937,10.819,9.075,17.796,7.052l0.059-0.03
		C272.871,209.595,275.1,212.292,277.122,213.715z"/>
	<linearGradient id="SVGID_9_" gradientUnits="userSpaceOnUse" x1="219.0274" y1="249.9303" x2="278.2996" y2="249.9303">
		<stop  offset="0" style="stop-color:#04223D"/>
		<stop  offset="1" style="stop-color:#001730"/>
	</linearGradient>
	<path fill="url(#SVGID_9_)" d="M259.942,216.265c4.837,7.242,13.692,12.989,16.682,21.887c5.38,13.412-2.976,14.249-13.985,15.832
		c-25.097,4.281,7.945,20.493,11.8,31.18c-3.987-0.233-9.587,0.719-13.252,1.407c-1.877-6.23-8.737-12.694-13.882-16.403
		c-0.162-0.117-0.308-0.235-0.47-0.338l0.089-0.132c-8.342-6.376-19.454-8.282-24.188-18.134c1.45-4.28,6.552-1.304,8.355-3.708
		c1.452-3.298-5.232-7.038-6.346-9.69c0.146-1.715,0.073-3.547-0.235-5.527c-0.601-3.943-3.622-9.557-5.483-15.069l0.22-0.073
		c8.604,2.227,12.402-3.255,19.878-4.149c4.661-0.5,13.574,2.286,18.822,4.631l0.587-0.059c0.205-0.776,0.543-1.422,0.982-1.964
		L259.942,216.265z"/>
	<linearGradient id="SVGID_10_" gradientUnits="userSpaceOnUse" x1="239.6235" y1="169.8747" x2="286.7827" y2="169.8747">
		<stop  offset="0" style="stop-color:#04223D"/>
		<stop  offset="1" style="stop-color:#001730"/>
	</linearGradient>
	<path fill="url(#SVGID_10_)" d="M250.691,135.595c2.772,13.736,21.726,17.283,35.286,14.072l0.806,3.254
		c-10.071,7.066-28.894,28.909-22.076,40.445l2.228-0.043c0.089,4.266,1.818,9.059,4.09,13.032l-0.059,0.03
		c-6.977,2.023-14.22-1.115-17.796-7.052c-5.19,0.792-12.007-4.192-13.546-9.353c10.452-16.99,13.957-41.046,9.03-57.216
		l0.029-0.014c0.338,1.231,0.777,2.272,1.306,3.005L250.691,135.595z"/>
	<linearGradient id="SVGID_11_" gradientUnits="userSpaceOnUse" x1="204.8678" y1="286.6476" x2="261.6722" y2="286.6476">
		<stop  offset="0" style="stop-color:#002A47"/>
		<stop  offset="1" style="stop-color:#00315A"/>
	</linearGradient>
	<path fill="url(#SVGID_11_)" d="M239.609,294.81c-0.293,3.24-2.081,6.246-5.336,7.858c-9.103,4.515-22.576-0.865-27.531-9.338
		c-2.962-5.072-1.452-10.76-1.745-16.33c-0.014-0.293-0.029-0.587-0.059-0.88h0.117c6.201-9.249,32.676-7.358,42.249-5.951
		c5.145,3.709,12.005,10.173,13.882,16.403c0.322,1.085,0.498,2.156,0.484,3.197c-0.059,9.675-16.301,5.101-21.726,5.086
		L239.609,294.81z"/>
	<linearGradient id="SVGID_12_" gradientUnits="userSpaceOnUse" x1="70.0113" y1="141.8533" x2="370.3855" y2="141.8533">
		<stop  offset="0" style="stop-color:#254156"/>
		<stop  offset="1" style="stop-color:#33597D"/>
	</linearGradient>
	<path fill="url(#SVGID_12_)" d="M354.641,85.093c2.302,3.24,4.237,6.743,5.967,10.365c3.078,6.421,7.579,12.929,9.778,19.57
		c-1.379,0.146-2.77,0.601-4.134,1.407l-0.263-0.44c-3.9-2.697-8.063-2.859-12.211-2.053c-7.374-5.556-17.709-2.14-19.438,5.586
		l-0.88-0.103c-21.886-1.656-14.82-26.783,2.316-30.287c-10.745-4.426-20.582-6.157-31.635-0.176
		c-9.029,5.175-25.287,22.62-18.031,33.512l-0.381,0.366c-5.6-5.791-8.283-12.768-17.621-14.469
		c-6.508-0.792-17.488,0.336-19.173,7.226l1.744,1.496c-3.005,3.562-3.284,10.964-1.994,15.656l-0.029,0.014
		c4.926,16.17,1.422,40.226-9.03,57.216c-5.483,8.942-12.9,15.921-22.003,18.778c-0.308,2.699,0.366,5.748,1.407,8.811
		c1.861,5.512,4.882,11.126,5.483,15.069c0.308,1.98,0.381,3.812,0.235,5.527c-0.279,3.709-1.482,6.905-3.24,10.173
		c0.336,1.158,0.747,2.229,1.231,3.225c4.734,9.852,15.846,11.758,24.188,18.134l-0.089,0.132c0.162,0.103,0.308,0.22,0.47,0.338
		c-9.573-1.407-36.047-3.298-42.249,5.951h-0.117c-0.425-7.71-1.011-15.421-4.309-22.532c-2.741-5.892-8.239-9.924-10.468-15.876
		c-9.778-0.835-12.402-9.997-12.064-18.865h-0.147c-10.452-0.587-25.962,0.879-35.065,7.358l-0.263-0.132
		c-6.728,14.556-17.049,29.07-34.17,27.632c-3.93-0.336-7.36-1.363-10.438-2.991c-5.307,3.871-8.443,18.265-6.817,24.761h0.03
		c0.146,0.293,0.308,0.616,0.527,0.968c-5.615,1.671-17.928,0.938-19.525-4.94l-0.425-0.103c0.176-0.719,0.366-1.422,0.543-2.112
		c1.774-6.611,2.667-13.662,1.128-20.434c-1.656-7.33-7.109-20.861,0.411-26.152c-6.905-8.972,0.498-17.958,9.879-12.3
		c-2.3-10.203-2.916-22.297-2.565-33.379c0.192-5.819,0.646-11.361,1.247-16.198c0.162-1.583,0.352-3.152,0.571-4.691
		c1.555-10.745,4.823-20.054,12.886-27.765c5.615-6.684,13.941-9.705,19.586-16.976l2.096,0.558
		c4.104-15.159,10.247-32.236,23.866-38.13l1.099,0.162c0.909-2.668,1.978-5.277,3.167-7.828
		c17.049-36.752,49.02-67.331,92.413-57.963c11.112,2.404,24.04,6.449,33.848,12.299c0.996,0.616,2.023,1.261,3.049,1.905
		c17.298-11.712,43.919-1.525,57.083,11.332c14.542,13.487,20.055,32.133,22.943,51.073L354.641,85.093z"/>
	<linearGradient id="SVGID_13_" gradientUnits="userSpaceOnUse" x1="67.0831" y1="287.9378" x2="101.3523" y2="287.9378">
		<stop  offset="0" style="stop-color:#002A47"/>
		<stop  offset="1" style="stop-color:#00315A"/>
	</linearGradient>
	<path fill="url(#SVGID_13_)" d="M88.207,299.003c-0.879,3.371-3.371,5.967-7.403,5.394c-5.629-0.792-9.705-5.117-11.904-10.144
		c-2.594-5.937-2.375-9.982,0.425-15.553c1.114-2.229,1.832-4.809,2.478-7.301l0.425,0.103c1.598,5.878,13.911,6.611,19.525,4.94
		c3.181,5.439,13.487,17.077,8.034,22.356C97.808,300.703,89.835,301.597,88.207,299.003z"/>
	<linearGradient id="SVGID_14_" gradientUnits="userSpaceOnUse" x1="19.7035" y1="177.982" x2="83.0173" y2="177.982">
		<stop  offset="0" style="stop-color:#203F5D"/>
		<stop  offset="1" style="stop-color:#2D4A61"/>
	</linearGradient>
	<path fill="url(#SVGID_14_)" d="M19.703,199.847c5.439-13.677,20.743-16.903,33.41-19.395c11.786-2.551,26.826-11.039,28.438-24.35
		l1.466,0.03c-0.219,1.539-0.409,3.108-0.571,4.691c-0.601,4.837-1.055,10.379-1.247,16.198l-1.099-0.03
		c-5.086,7.579-20.815,7.579-28.76,9.178c-4.531,0.909-9.061,2.11-13.209,4.163c-4.602,2.272-7.241,5.159-10.114,9.322l-0.044,0.162
		c-2.903-0.689-5.703-0.733-8.048,0.044l-0.015-0.059C19.836,199.803,19.777,199.817,19.703,199.847z"/>
	<linearGradient id="SVGID_15_" gradientUnits="userSpaceOnUse" x1="6.2088" y1="225.6001" x2="51.0314" y2="225.6001">
		<stop  offset="0" style="stop-color:#203F5D"/>
		<stop  offset="1" style="stop-color:#2D4A61"/>
	</linearGradient>
	<path fill="url(#SVGID_15_)" d="M19.924,199.862c2.345-0.777,5.145-0.733,8.048-0.044c10.085,2.375,21.3,12.432,18.251,21.696
		c-0.85-3.195-4.764-6.992-7.945-5.775c0.66,2.991,0.543,4.25-0.073,7.637c-1.276,6.933,4.06,25.492,12.827,25.976l-0.044,0.879
		c-10.642,2.61-19.087,2.727-28.645-3.635c-2.888-2.288-5.043-5.527-6.538-8.854c-0.865-1.95-3.973-6.656-2.742-8.767l-0.425-0.292
		c-1.099,1.407-1.832,3.122-2.052,4.734h-0.029c-4.94-4.823-4.925-13.266-3.577-19.541c1.686-7.784,5.409-11.962,12.724-14.028
		c0.074-0.03,0.133-0.044,0.206-0.044L19.924,199.862z"/>
	<linearGradient id="SVGID_16_" gradientUnits="userSpaceOnUse" x1="81.1092" y1="111.0755" x2="370.3855" y2="111.0755">
		<stop  offset="0" style="stop-color:#3F91C0"/>
		<stop  offset="1" style="stop-color:#00ACE6"/>
	</linearGradient>
	<path fill="url(#SVGID_16_)" d="M354.641,85.093l0.411-0.293c-2.887-18.94-8.401-37.586-22.943-51.073
		c-13.163-12.857-39.785-23.044-57.083-11.332c-1.026-0.644-2.053-1.29-3.049-1.905c-9.808-5.85-22.736-9.895-33.848-12.299
		c-43.393-9.368-75.364,21.212-92.413,57.963c-1.188,2.551-2.258,5.16-3.167,7.828l-1.099-0.162
		c-13.619,5.894-19.762,22.971-23.866,38.13l-2.096-0.558c-5.645,7.271-13.971,10.292-19.586,16.976
		c-8.063,7.712-11.331,17.02-12.886,27.765c-0.219,1.539-0.409,3.108-0.571,4.691c-0.601,4.837-1.055,10.379-1.247,16.198
		c-0.328,10.355,0.208,21.572,2.153,31.326c0.807,2.394,1.396,4.832,1.605,7.32c-1.162-13.998-1.85-28.128,0.109-42.363
		c0.405-2.945,0.986-5.96,1.757-8.957c1.668-6.478,4.222-12.867,7.805-18.243c5.599-8.402,15.369-13.421,20.055-22.578
		c-3.099,6.056-1.656,18.96,1.575,25.171c-0.329-19.604,7.554-36.75,19.541-51.939c-2.333,6.406,0.556,19.378,3.424,25.064
		c-0.129-7.667-0.468-14.719,2.418-21.816c5.275-12.969,13.747-25.87,22.099-37.065c8.681-11.634,18.991-22.238,31.286-30.066
		c21.383-13.614,47.086-11.758,70.508-5.944c8.428,2.093,16.533,5.964,24.075,9.415c-2.047-4.574-6.691-7.53-10.463-10.512
		c8.04-1.358,18.99-1.032,26.738,2.057c7.364,2.936,15.301,9.155,21.156,14.423c4.719,4.246,8.621,9.254,11.38,14.981
		c1.221,2.537,2.794,5.646,3.204,8.453c0.401,2.743-0.663,5.572,0.278,8.295c-3.781-8.627-15.294-10.922-22.862-13.948
		c-2.47-0.986-4.595-2.432-7.327-3.048c-2.475-0.557-6.131,0.321-8.29-0.424c3.751,1.293,7.928,2.05,11.716,4.398
		c9.888,6.133,20.563,14.037,27.267,23.691c6.126,8.821,9.685,19.581,15.178,28.82c2.866-0.046,5.7,0.588,8.406,2.459l0.263,0.44
		c1.364-0.806,2.756-1.261,4.134-1.407c-2.199-6.641-6.7-13.149-9.778-19.57C358.878,91.836,356.943,88.333,354.641,85.093z"/>
	<path fill="#E6EFC2" d="M334.411,124.585c-0.425-1.832-0.411-3.532-0.073-5.056l-0.88-0.103
		c-20.904-1.582-15.388-24.563,0.08-29.675c-5.512-2.212-14.42,1.565-18.47,4.721c-7.94,6.19-8.1,18.276-2.414,26.059
		c4.03,5.519,12.987,7.949,20.284,8.008C333.568,127.225,334.064,125.875,334.411,124.585z"/>
	<path fill="#687877" d="M323.049,133.234c-7.519-0.355-14.185-1.546-19.545-7.212c-4.634-4.9-7.839-11.826-6.246-18.712
		c2.188-9.456,10.074-14.173,17.995-18.887c2.822-1.679,5.295-2.303,8.03-2.953c-6.249-0.905-12.475-0.116-19.143,3.493
		c-9.029,5.175-25.287,22.62-18.031,33.512l-0.381,0.366c0.63,0.66,1.29,1.29,2.009,1.905c7.315,6.157,23.631,14.161,35.065,12.914
		c0.571-0.057,1.128-0.146,1.671-0.263l-0.176-0.85c1.88-0.412,3.517-1.409,4.915-2.733
		C327.128,133.389,324.847,133.319,323.049,133.234z"/>
	<linearGradient id="SVGID_17_" gradientUnits="userSpaceOnUse" x1="206.1986" y1="29.3318" x2="212.9752" y2="247.6872">
		<stop  offset="0" style="stop-color:#203F5D"/>
		<stop  offset="1" style="stop-color:#2D4A61"/>
	</linearGradient>
	<path fill="url(#SVGID_17_)" d="M341.253,100.226c-4.21-12.448-15.962-29.724-26.925-36.186
		c-17.037-10.044-27.459-3.328-26.776,17.08c-5.52-7.49-3.182-36.308-20.351-29.997c-14.164,5.205-0.972,27.881-7.579,36.056
		c-4.886-9.884-18.845-35.679-31.49-33.888c-20.997,2.976-24.453,30.633-14.473,44.919c-6.726-7.897-16.545-16.573-26.356-7.758
		c-6.183,5.555-5.636,16.652-4.821,26.418c-1.068-5.134-3.829-8.953-11.033-7.109c-10.671,2.731-22.038,13.589-27.31,22.714
		c-5.875,10.168-4.008,26.166-12.758,33.011c-11.431,8.943-27.36,5.267-35.204,20.094c-5.702,10.778-4.212,26.145,5.786,33.921
		c-4.597,3.852-15.43-3.754-21.209,2.839c-6.293,7.189-0.74,16.208,0.095,23.95c0.989,9.175-1.045,18.956,2.471,27.731
		c0.438,1.092,0.955,2.153,1.523,3.192c2.611,0.05,5.108-0.233,6.913-0.77c-0.219-0.352-0.381-0.674-0.527-0.968h-0.03
		c-1.626-6.495,1.51-20.89,6.817-24.761c3.078,1.628,6.508,2.654,10.438,2.991c17.122,1.437,27.442-13.076,34.17-27.632l0.263,0.132
		c9.103-6.479,24.613-7.945,35.065-7.358h0.147c-0.338,8.869,2.286,18.031,12.064,18.865c2.229,5.953,7.726,9.984,10.468,15.876
		c3.298,7.111,3.884,14.821,4.309,22.532h0.117c6.201-9.249,32.676-7.358,42.249-5.951c-0.162-0.117-0.308-0.235-0.47-0.338
		l0.089-0.132c-8.342-6.376-19.454-8.282-24.188-18.134c-0.484-0.996-0.895-2.067-1.231-3.225c1.758-3.268,2.96-6.463,3.24-10.173
		c0.146-1.715,0.073-3.547-0.235-5.527c-0.601-3.943-3.622-9.557-5.483-15.069c-1.041-3.064-1.715-6.113-1.407-8.811
		c9.103-2.857,16.52-9.836,22.003-18.778c10.452-16.99,13.957-41.046,9.03-57.216l0.029-0.014
		c-1.29-4.691-1.011-12.094,1.994-15.656l-1.744-1.496c1.685-6.89,12.665-8.018,19.173-7.226
		c9.338,1.701,12.021,8.678,17.621,14.469l0.381-0.366c-7.257-10.891,9.002-28.337,18.031-33.512
		c11.053-5.981,20.89-4.25,31.635,0.176c-17.136,3.503-24.202,28.63-2.316,30.287l0.88,0.103c0.976-4.359,4.693-7.344,9.069-8.121
		C343.147,107.556,342.464,103.808,341.253,100.226z"/>
	<linearGradient id="SVGID_18_" gradientUnits="userSpaceOnUse" x1="334.0883" y1="126.9174" x2="386.2053" y2="126.9174">
		<stop  offset="0" style="stop-color:#3F91C0"/>
		<stop  offset="1" style="stop-color:#00ACE6"/>
	</linearGradient>
	<path fill="url(#SVGID_18_)" d="M384.986,126.476c-2.478-6.597-8.356-12.181-14.601-11.448c-1.379,0.146-2.77,0.601-4.134,1.407
		l-0.263-0.44c-3.9-2.697-8.063-2.859-12.211-2.053c-7.374-5.556-17.709-2.14-19.438,5.586c-0.338,1.525-0.352,3.224,0.073,5.056
		c-0.032,0.117-0.07,0.238-0.105,0.357c3.009-0.422,6.28-0.584,8.154-1.005c3.978-0.893,8.581-3.37,12.549-3.819
		c-0.866,1.98-2.279,3.765-3.702,5.201c0.835-0.843,7.494-2.408,9.042-2.945c3.454-1.198,7.371-1.961,11.058-1.367
		c5.44,0.878,10.174,5.28,11.636,10.751c1.104,4.136-0.01,7.334-1.452,10.863c0.007,0.003,0.016,0.007,0.023,0.011
		C386.687,138.79,387.141,132.252,384.986,126.476z"/>
	<linearGradient id="SVGID_19_" gradientUnits="userSpaceOnUse" x1="322.8013" y1="138.8546" x2="386.1487" y2="138.8546">
		<stop  offset="0" style="stop-color:#092440"/>
		<stop  offset="1" style="stop-color:#1F3A58"/>
	</linearGradient>
	<path fill="url(#SVGID_19_)" d="M386.149,134.186c-2.932,2.099-6.634,3.26-10.035,4.023c-1.463,0.329-8.717,2.139-8.046-1.316
		c0.276-1.426,3.467-3.787,1.537-5.333c-1.094-0.878-4.375,0.873-5.441,1.245c-2.401,0.837-4.738,1.757-7.03,2.799
		c-2.465,1.12-2.816,1.009-5.071,0.013c-5.573-2.464-11.249,2-17.069,0.852c-2.12-0.418-4.127-1.433-6.03-2.425
		c-1.343,1.208-2.899,2.114-4.668,2.503l0.176,0.85c-0.543,0.117-1.099,0.206-1.671,0.263c1.553,4.457,9.66,7.975,13.765,8.034
		c2.918,0.029,5.688-0.792,8.093-2.258l0.132,0.205c4.163,1.994,9.059,1.423,13.193-0.557l-0.601,1.407
		c7.565,3.314,15.583,2.229,21.447-2.77l1.862,0.425c0.308,0.162,0.616,0.322,0.923,0.484
		C384.474,140.467,385.864,137.446,386.149,134.186z"/>
	<linearGradient id="SVGID_20_" gradientUnits="userSpaceOnUse" x1="279.8466" y1="135.7088" x2="412.9121" y2="135.7088">
		<stop  offset="0" style="stop-color:#092440"/>
		<stop  offset="1" style="stop-color:#1F3A58"/>
	</linearGradient>
	<path fill="url(#SVGID_20_)" d="M412.37,138.234l-1.304-0.411c-6.582,8.034-18.369,10.365-29.45,4.809
		c-0.308-0.162-0.616-0.322-0.923-0.484l-1.862-0.425c-5.864,4.999-13.882,6.084-21.447,2.77l0.601-1.407
		c-4.134,1.98-9.03,2.551-13.193,0.557l-0.132-0.205c-2.405,1.466-5.175,2.286-8.093,2.258c-4.104-0.059-12.211-3.577-13.765-8.034
		c-11.434,1.247-27.75-6.757-35.065-12.914c-0.719-0.616-1.379-1.245-2.009-1.905c-2.219-2.295-3.983-4.771-5.881-7.036
		c3.135,16.404,26.214,34.982,42.495,29.694c-1.137,8.441,12.234,9.261,17.69,7.878c1.673-0.425,4.306-2.621,5.862-2.572
		c1.971,0.062,3.137,2.057,4.887,2.952c3.93,2.006,9.073,2.471,13.193,0.979c1.852-0.67,3.125-2.21,4.78-2.345
		c1.211-0.097,3.777,1.333,5.482,1.367c4.335,0.087,7.178-2.395,11.235-2.933c7.544-0.999,16.629,1.151,23.163-3.771
		c2.584-1.947,3.931-4.551,4.278-7.321C412.709,139.152,412.518,138.643,412.37,138.234z"/>
	<path fill="#687877" d="M381.404,93.018c-0.552,0.119-1.104,0.261-1.652,0.445c5.396-0.073,13.839,13.37,13.985,18.397
		c0.47,6.23-3.665,11.039-8.751,14.615c1.041,2.792,1.464,5.758,1.061,8.514c2.955-1.125,5.958-3.237,7.736-4.668
		C410.868,116.574,399.568,97.452,381.404,93.018z"/>
	<path fill="#E6EFC2" d="M400.174,98.228c-4.953-3.353-12.323-6.933-19.462-5.038c3.91,1.21,7.932,1.83,11.544,4.22
		c5.247,3.474,10.221,8.684,13.252,14.201c2.432,4.428,2.803,11.211,2.209,16.473c-0.567,5.018-5.89,16.303-11.908,17.504
		c6.047-0.464,11.5-3.181,15.256-7.766c2.829-3.46,4.691-7.974,5.117-13.37C417.223,113.59,408.998,104.4,400.174,98.228z"/>
	<g>
		<linearGradient id="SVGID_21_" gradientUnits="userSpaceOnUse" x1="166.9144" y1="131.3157" x2="240.4191" y2="292.552">
			<stop  offset="0" style="stop-color:#1F3A58"/>
			<stop  offset="1" style="stop-color:#092440"/>
		</linearGradient>
		<path fill="url(#SVGID_21_)" d="M286.108,122.475c-5.606-8.413,2.822-20.735,11.109-28.292
			c-6.061,0.057-12.584,1.882-19.246,5.602c-10.346,5.773-18.615,6.206-29.319,3.152c-7.71-2.199-19.392-8.093-24.456-0.026
			c-3.704,5.901-2.379,22.796-1.105,29.197c-7.944,0.324-13.57-6.842-22.327-5.742c-8.174,1.026-13.173,6.405-18.569,11.533
			c-5.242,4.983-10.197,11.311-16.613,13.899c-7.546,3.044-14.124-4.349-21.101-0.019c-6.35,3.943-7.852,16.871-9.925,23.257
			c-5.041,15.511-0.179,38.517-9.045,52.016c-5.778,8.796-10.787,8.943-19.543,6.842c-4.948-1.188-13.42-6.793-17.342-3.715
			c-7.751,6.081-3.387,20.134-2.468,28.149c0.344,3.006-0.406,11.702,0.029,18.867c2.109-0.051,4.077-0.309,5.567-0.753
			c-0.219-0.352-0.381-0.674-0.527-0.968h-0.03c-1.626-6.495,1.51-20.89,6.817-24.761c3.078,1.628,6.508,2.654,10.438,2.991
			c17.122,1.437,27.442-13.076,34.17-27.632l0.263,0.132c9.103-6.479,24.613-7.945,35.065-7.358h0.147
			c-0.338,8.869,2.286,18.031,12.064,18.865c2.229,5.953,7.726,9.984,10.468,15.876c3.298,7.111,3.884,14.821,4.309,22.532h0.117
			c6.201-9.249,32.676-7.358,42.249-5.951c-0.162-0.117-0.308-0.235-0.47-0.338l0.089-0.132
			c-8.342-6.376-19.454-8.282-24.188-18.134c-0.484-0.996-0.895-2.067-1.231-3.225c1.758-3.268,2.96-6.463,3.24-10.173
			c0.146-1.715,0.073-3.547-0.235-5.527c-0.601-3.943-3.622-9.557-5.483-15.069c-1.041-3.064-1.715-6.113-1.407-8.811
			c9.103-2.857,16.52-9.836,22.003-18.778c10.452-16.99,13.957-41.046,9.03-57.216l0.029-0.014
			c-1.29-4.691-1.011-12.094,1.994-15.656l-1.744-1.496c1.685-6.89,12.665-8.018,19.173-7.226
			c9.338,1.701,12.021,8.678,17.621,14.469L286.108,122.475z"/>
		<linearGradient id="SVGID_22_" gradientUnits="userSpaceOnUse" x1="319.6259" y1="105.6994" x2="326.079" y2="119.8546">
			<stop  offset="0" style="stop-color:#1F3A58"/>
			<stop  offset="1" style="stop-color:#092440"/>
		</linearGradient>
		<path fill="url(#SVGID_22_)" d="M326.747,117.862c-1.737-4.978-4.036-9.208-6.793-12.654
			C319.161,110.372,321.098,115.368,326.747,117.862z"/>
	</g>
	<linearGradient id="SVGID_23_" gradientUnits="userSpaceOnUse" x1="183.248" y1="134.8177" x2="169.5523" y2="191.7657">
		<stop  offset="0" style="stop-color:#1F3A58"/>
		<stop  offset="1" style="stop-color:#092440"/>
	</linearGradient>
	<path fill="url(#SVGID_23_)" d="M184.087,181.162c-2.136-8.511-3.317-17.351-8.741-24.582c-4.419,3.347-10.047,7.902-13.657,12.064
		c-5.675,6.542-5.43,9.722-6.866,19.301c-1.951,13.013-4.706,24.816-9.912,36.968c9.153-5.323,23.027-6.584,32.73-6.08
		c1.4-4.167,2.784-8.359,4.306-12.533C185.957,195.302,186.813,192.016,184.087,181.162z"/>
	<linearGradient id="SVGID_24_" gradientUnits="userSpaceOnUse" x1="177.1051" y1="207.1118" x2="214.6869" y2="207.1118">
		<stop  offset="0" style="stop-color:#203F5D"/>
		<stop  offset="1" style="stop-color:#2D4A61"/>
	</linearGradient>
	<path fill="url(#SVGID_24_)" d="M208.6,254.378c-2.034-6.545-4.067-14.223-6.87-20.549c-2.323-5.238-9.888-10.09-11.504-13.852
		c-5.666-13.188,9.433-27.206,4.935-41.091c-5.191-16.021-14.271-22.798-8.087-40.781c-0.451,0.441-1.493,1.628-1.954,2.173
		c-11.629,13.746-5.204,22.48-1.191,37.134c3.695,13.495-5.785,27.817-6.823,41.398c0.281,0.013,0.571,0.02,0.846,0.036h0.147
		c-0.338,8.869,2.286,18.031,12.064,18.865c2.229,5.953,7.726,9.984,10.468,15.876c3.298,7.111,3.884,14.821,4.309,22.532h0.117
		c1.801-2.687,5.32-4.429,9.63-5.52C212.627,264.454,209.887,258.518,208.6,254.378z"/>
	<linearGradient id="SVGID_25_" gradientUnits="userSpaceOnUse" x1="307.439" y1="177.7042" x2="358.9659" y2="177.7042">
		<stop  offset="0" style="stop-color:#3F91C0"/>
		<stop  offset="1" style="stop-color:#00ACE6"/>
	</linearGradient>
	<path fill="url(#SVGID_25_)" d="M358.966,180.511c-0.019,5.923,0.361,18.36-7.698,19.074
		c-11.377,1.011-15.298-16.042-19.421-23.492c-4.925-8.896-13.289-19.654-24.408-11.67c4.071-5.021,11.109-11.049,18.168-7.652
		c5.031,2.422,8.331,8.687,10.637,13.397c3.273,6.687,5.361,14.231,9.806,20.257c5.752,7.798,14.069-3.033,11.816-9.914H358.966z"/>
	<linearGradient id="SVGID_26_" gradientUnits="userSpaceOnUse" x1="356.4477" y1="180.2168" x2="386.4522" y2="180.2168">
		<stop  offset="0" style="stop-color:#3F91C0"/>
		<stop  offset="1" style="stop-color:#00ACE6"/>
	</linearGradient>
	<path fill="url(#SVGID_26_)" d="M386.452,163.286c-0.448,3.732-2.797,8.645-4.396,12.094c-1.662,3.583-2.975,6.922-4.489,10.62
		c-1.692,4.13-4.289,9.065-8.99,10.727c-3.517,1.243-8.299-0.597-12.128-1.253c0.302-3.152,2.578-5.728,2.576-8.914
		c2.213,3.331,10.513,0.182,12.788-2.007c1.911-1.839,4.059-4.751,5.387-7.046c1.748-3.018,4.547-11.096,7.421-12.387
		L386.452,163.286z"/>
	<linearGradient id="SVGID_27_" gradientUnits="userSpaceOnUse" x1="365.9184" y1="210.7311" x2="381.3214" y2="210.7311">
		<stop  offset="0" style="stop-color:#3F91C0"/>
		<stop  offset="1" style="stop-color:#00ACE6"/>
	</linearGradient>
	<path fill="url(#SVGID_27_)" d="M381.321,223.878c-2.555-4.766-3.825-10.963-6.163-16.125c-1.238-2.736-2.895-5.198-4.282-7.824
		c-0.588-1.111-1.115-3.201-2.255-3.663c-4.968-2.02-1.708,4.351-0.989,5.918c1.519,3.311,2.792,6.728,4.351,10.021
		c2.103,4.442,5.706,8.787,7.384,13.384L381.321,223.878z"/>
	<linearGradient id="SVGID_28_" gradientUnits="userSpaceOnUse" x1="381.3801" y1="236.8235" x2="397.6798" y2="236.8235">
		<stop  offset="0" style="stop-color:#3F91C0"/>
		<stop  offset="1" style="stop-color:#00ACE6"/>
	</linearGradient>
	<path fill="url(#SVGID_28_)" d="M393.869,237.99c4.839-3.444,5.572-17.944-0.747-20.89c-0.909-0.498-1.788-0.719-2.653-0.719
		c-0.017,0-0.033,0.006-0.049,0.006c-2.037,0.805-4.089,1.974-5.983,3.253c-0.945,0.939-1.88,2.008-2.809,3.162
		c-0.083,0.103-0.166,0.216-0.249,0.321c2.906-1.264,6.519-2.272,8.452-1.674c8.632,2.676-0.538,17.578,0.366,23.481
		c0.451,2.942,1.195,5.798,0.67,8.877c-0.199,1.171-0.646,2.318-1.194,3.457c0.192-0.129,0.382-0.233,0.574-0.379
		c0.381-0.292,0.777-0.63,1.158-0.996C395.835,251.917,398.605,241.376,393.869,237.99z"/>
	<linearGradient id="SVGID_29_" gradientUnits="userSpaceOnUse" x1="384.2607" y1="178.1667" x2="414.3842" y2="178.1667">
		<stop  offset="0" style="stop-color:#3F91C0"/>
		<stop  offset="1" style="stop-color:#00ACE6"/>
	</linearGradient>
	<path fill="url(#SVGID_29_)" d="M395.072,158.668l0.117-0.644c5.234,0.879,11.039,2.243,15.744-1.964
		c6.024-6.216,2.565-14.718,1.436-17.826l-0.435-0.138c-0.563,4.299-0.553,9.218-2.01,10.814c-3.061,3.354-8.011,3.739-12.111,4.114
		c-3.94,0.361-7.028,0.609-9.62,3.931c-8.632,11.056-0.764,17.392,2.006,28.686c0.908,3.701,1.582,7.086,1.384,11.013
		c-0.272,5.406-4.6,14.199-5.589,21.583c1.452-1.144,2.936-1.855,4.475-1.855l2.301-0.616c0.968-9.543,8.723-15.67,7.139-26.239
		c-0.982-4.706-4.236-11.699-8.488-15.994l0.206-0.206C387.904,169.634,389.722,160.559,395.072,158.668z"/>
	<linearGradient id="SVGID_30_" gradientUnits="userSpaceOnUse" x1="247.9843" y1="250.3942" x2="278.2996" y2="250.3942">
		<stop  offset="0" style="stop-color:#1F3A58"/>
		<stop  offset="1" style="stop-color:#092440"/>
	</linearGradient>
	<path fill="url(#SVGID_30_)" d="M262.639,253.984c11.009-1.583,19.365-2.419,13.985-15.832
		c-2.991-8.899-11.845-14.645-16.682-21.887l-0.425-0.308c-0.439,0.543-0.777,1.188-0.982,1.964l-0.587,0.059
		c-1.752-0.783-3.915-1.612-6.189-2.355c-0.334,0.228-0.656,0.488-0.958,0.79c5.868,6.859,24.688,16.028,21.031,27.14
		c-1.991,6.053-10.671,4.159-15.491,5.489c-5.809,1.603-9.428,7.572-8.073,13.579c2.352,10.432,13.387,14.561,21.25,20.085
		c1.094,0.769,2.159,1.57,3.175,2.428c0.606-0.008,1.193-0.004,1.745,0.029C270.584,274.477,237.542,258.264,262.639,253.984z"/>
	<linearGradient id="SVGID_31_" gradientUnits="userSpaceOnUse" x1="322.9155" y1="224.9456" x2="359.0811" y2="224.9456">
		<stop  offset="0" style="stop-color:#3F91C0"/>
		<stop  offset="1" style="stop-color:#00ACE6"/>
	</linearGradient>
	<path fill="url(#SVGID_31_)" d="M322.927,231.452c-0.482-7.378,13.994-12.777,19.558-10.382c7.449,3.207,11.623,8.923,16.47,14.999
		c1.683-8.72-14.02-21.256-21.822-22.174c-3.351-0.394-11.667,0.719-11.763,5.34L322.927,231.452z"/>
	<linearGradient id="SVGID_32_" gradientUnits="userSpaceOnUse" x1="332.4633" y1="235.89" x2="353.8005" y2="235.89">
		<stop  offset="0" style="stop-color:#04223D"/>
		<stop  offset="1" style="stop-color:#001730"/>
	</linearGradient>
	<path fill="url(#SVGID_32_)" d="M352.063,233.969c-4.718-5.745-17.555-8.986-19.51,0.398c-1.537,7.383,17.113,12.234,20.549,6.338
		C354.415,238.451,353.769,236.046,352.063,233.969z"/>
	<linearGradient id="SVGID_33_" gradientUnits="userSpaceOnUse" x1="374.3582" y1="237.3973" x2="390.1907" y2="237.3973">
		<stop  offset="0" style="stop-color:#04223D"/>
		<stop  offset="1" style="stop-color:#001730"/>
	</linearGradient>
	<path fill="url(#SVGID_33_)" d="M374.358,241.347c1.429-3.472,10.579-11.969,14.392-9.179c2.366,1.731,1.444,6.07-0.1,7.732
		c-2.319,2.495-6.756,3.014-9.894,3.28L374.358,241.347z"/>
	<linearGradient id="SVGID_34_" gradientUnits="userSpaceOnUse" x1="257.8949" y1="133.7075" x2="298.4703" y2="133.7075">
		<stop  offset="0" style="stop-color:#1F3A58"/>
		<stop  offset="1" style="stop-color:#092440"/>
	</linearGradient>
	<path fill="url(#SVGID_34_)" d="M260.379,135.058c-3.195-4.872-4.186-10.484,2.435-12.585c3.148-0.999,7.24,0.77,9.785,1.956
		c5.317,2.477,9.357,5.494,14.168,8.568c0.929,0.593,12.412,8.582,11.669,8.924c-8.402,3.877-20.868,4.521-29.472,1.039
		C266.37,141.913,262.762,138.692,260.379,135.058z"/>
	<linearGradient id="SVGID_35_" gradientUnits="userSpaceOnUse" x1="263.2528" y1="188.5721" x2="323.7089" y2="188.5721">
		<stop  offset="0" style="stop-color:#092440"/>
		<stop  offset="1" style="stop-color:#1F3A58"/>
	</linearGradient>
	<path fill="url(#SVGID_35_)" d="M323.666,226.674c0.013-0.069,0.029-0.135,0.043-0.203c-0.009-0.009-0.016-0.016-0.024-0.024
		c-4.814-4.867-10.005-8.519-16.442-11.023c-6.186-2.406-10.894-4.541-15.477-9.38c-10.138-10.705-9.228-22.792-2.14-34.617
		c-3.41,2.431-7.453,5.871-11.135,7.715c1.768-0.885,3.994-6.969,5.082-8.771c2.109-3.496,4.305-6.936,6.54-10.35
		c3.403-5.198,6.793-9.862,10.289-14.957c-4.605,0.182-9.645,2.564-14.256,5.29l0.637,2.57
		c-10.071,7.066-28.894,28.909-22.076,40.445l2.228-0.043c0.089,4.266,1.818,9.059,4.09,13.032c1.847,3.24,4.076,5.937,6.098,7.36
		c1.539,1.142,3.152,2.154,4.823,3.092c9.425,5.337,20.333,8.077,28.689,15.275C311.762,228.081,319.635,224.123,323.666,226.674z"
		/>
	<linearGradient id="SVGID_36_" gradientUnits="userSpaceOnUse" x1="310.3332" y1="243.2219" x2="393.3896" y2="243.2219">
		<stop  offset="0" style="stop-color:#092440"/>
		<stop  offset="1" style="stop-color:#1F3A58"/>
	</linearGradient>
	<path fill="url(#SVGID_36_)" d="M369.681,253.808c6.934,2.037,13.604,8.37,20.567,3.078c0.381-0.292,0.777-0.63,1.158-0.996
		c0.714-0.641,1.379-1.466,1.983-2.394c-2.004,0.628-4.086,0.991-6.003,1.045c-4.843,0.136-6.71-1.263-10.095-4.406
		c-4.717-4.379-11.019-5.671-17.218-4.836c-6.792,0.915-10.693,5.214-17.966,4.844c-5.407-0.275-6.909-3.042-9.41-7.251
		c-2.733-4.598-6.859-8.738-7.786-14.183c-0.279-1.641-0.409-2.976-0.825-3.99c-0.152,0.643-0.295,1.293-0.421,1.954
		c-4.031-2.551-11.904,1.407-13.032,5.409c-0.016,0.03-0.016,0.059-0.03,0.089c-1.875,6.054,6.378,12.329,12.564,13.677
		c0.85,0.19,1.656,0.278,2.389,0.263l1.539,3.577c2.638,7.579,12.007,12.035,19.863,12.035
		C356.151,261.358,361.077,251.58,369.681,253.808z"/>
	<linearGradient id="SVGID_37_" gradientUnits="userSpaceOnUse" x1="313.298" y1="184.6807" x2="346.6205" y2="184.6807">
		<stop  offset="0" style="stop-color:#092440"/>
		<stop  offset="1" style="stop-color:#1F3A58"/>
	</linearGradient>
	<path fill="url(#SVGID_37_)" d="M339.426,205.357c2.019-0.512,6.167-1.824,7.006-4.036c0.552-1.457-0.188-2.581-1.238-3.563
		c-8.313,6.78-22.474,4.91-26.821-5.769c-2.87-7.891,1.785-19.55,7.062-26.428c-0.913-1.376-2.169-2.455-3.467-2.26
		c-3.32,0.497-4.935,8.243-5.818,10.744c-1.327,3.756-2.296,7.735-2.744,11.726c-0.829,7.374,3.157,16.324,10.73,18.82
		C328.934,206.171,334.504,206.61,339.426,205.357z"/>
	<linearGradient id="SVGID_38_" gradientUnits="userSpaceOnUse" x1="369.1057" y1="184.6264" x2="391.0724" y2="184.6264">
		<stop  offset="0" style="stop-color:#092440"/>
		<stop  offset="1" style="stop-color:#1F3A58"/>
	</linearGradient>
	<path fill="url(#SVGID_38_)" d="M389.325,176.773c-0.962-1.797-4.306-9.108-7.275-7.627c-1.087,0.543-1.223,4.302-1.39,6.296
		c0.613-1.885,1.214-3.641,1.951-5.354c9.016,12.667,4.633,28.527-12.519,26.52l0.042-0.409c-0.351,0.143-0.697,0.26-1.028,0.316
		l0.49,3.177C385.231,203.601,395.309,187.949,389.325,176.773z"/>
	<linearGradient id="SVGID_39_" gradientUnits="userSpaceOnUse" x1="344.8148" y1="200.6499" x2="370.4296" y2="200.6499">
		<stop  offset="0" style="stop-color:#092440"/>
		<stop  offset="1" style="stop-color:#1F3A58"/>
	</linearGradient>
	<path fill="url(#SVGID_39_)" d="M344.856,200.851c-0.374,1.211,1.875,3.628,3.075,4.26c1.386,0.732,2.958,0.701,4.478,0.5
		c3.661-0.487,4.534-3.547,8.385-2.384c3.483,1.055,11.317-0.182,9.312-5.451c-0.868-2.282-3.599-1.359-5.248-0.663
		c-1.456,0.614-1.686,0.966-3.238,0.448c-1.273-0.427-2.31-1.389-3.61-1.791c-2.391-0.739-2.634,0.657-4.491,2.011
		c-1.502,1.095-2.829,0.887-4.631,0.687c-2.145-0.238-2.571-1.361-3.848-2.199L344.856,200.851z"/>
	<linearGradient id="SVGID_40_" gradientUnits="userSpaceOnUse" x1="247.6532" y1="118.6865" x2="282.4049" y2="118.6865">
		<stop  offset="0" style="stop-color:#3F91C0"/>
		<stop  offset="1" style="stop-color:#00ACE6"/>
	</linearGradient>
	<path fill="url(#SVGID_40_)" d="M248.654,130.059c-0.981-3.457,4.266-9.053,6.591-11.225c2.56-2.391,5.855-4.678,9.523-4.674
		c2.76,0.003,6.452,1.074,9.05,1.913c2.56,0.826,6.698,1.94,8.587,3.652c-0.909-0.941-0.799-2.044-1.427-3.042
		c-0.75-1.188-1.695-1.817-2.766-2.694c-1.326-1.085-2.736-2.212-4.136-3.284c-3.386-2.593-6.605-3.558-11.007-3.367
		c-5.912,0.255-15.959,5.988-15.392,13.193L248.654,130.059z"/>
	<linearGradient id="SVGID_41_" gradientUnits="userSpaceOnUse" x1="209.313" y1="196.8889" x2="250.8469" y2="196.8889">
		<stop  offset="0" style="stop-color:#04223D"/>
		<stop  offset="1" style="stop-color:#001730"/>
	</linearGradient>
	<path fill="url(#SVGID_41_)" d="M239.624,189.981c10.413-16.927,13.925-40.863,9.079-57.031c-0.938-3.023-1.739-6.077-2.003-9.34
		c-0.129,19.242-4.717,39.868-14.565,56.537c-4.936,8.355-10.788,13.391-17.222,20.533c-5.433,6.03-7.222,14.125-3.991,21.595
		c2.142,4.952,6.071,7.297,5.493,13.685c-0.457,5.041-1.951,9.935-2.454,15.039c-0.609,6.172,0.315,8.338,5.267,12.337
		c2.223,1.795,4.382,4.073,6.784,5.756c8.253-0.379,16.709,0.401,21.293,1.075c-0.162-0.117-0.308-0.235-0.47-0.338l0.089-0.132
		c-8.342-6.376-19.454-8.282-24.188-18.134c-0.484-0.996-0.895-2.067-1.231-3.225c1.758-3.268,2.96-6.463,3.24-10.173
		c0.146-1.715,0.073-3.547-0.235-5.527c-0.601-3.943-3.622-9.557-5.483-15.069c-1.041-3.064-1.715-6.113-1.407-8.811
		C226.724,205.901,234.141,198.922,239.624,189.981z"/>
	<linearGradient id="SVGID_42_" gradientUnits="userSpaceOnUse" x1="204.8678" y1="287.9029" x2="233.1815" y2="287.9029">
		<stop  offset="0" style="stop-color:#203F5D"/>
		<stop  offset="1" style="stop-color:#2D4A61"/>
	</linearGradient>
	<path fill="url(#SVGID_42_)" d="M233.181,303.124c-0.301-0.077-0.57-0.165-0.8-0.263c-6.245-2.678-11.78-8.071-15.407-13.746
		c-2.862-4.479-3.204-11.997-5.32-17.591c-2.91,1.079-5.241,2.57-6.598,4.595h-0.117c0.03,0.293,0.044,0.587,0.059,0.88
		c0.293,5.57-1.217,11.258,1.745,16.33C211.504,301.474,224.124,306.733,233.181,303.124z"/>
	<linearGradient id="SVGID_43_" gradientUnits="userSpaceOnUse" x1="379.4646" y1="275.3724" x2="395.1891" y2="275.3724">
		<stop  offset="0" style="stop-color:#3F91C0"/>
		<stop  offset="1" style="stop-color:#00ACE6"/>
	</linearGradient>
	<path fill="url(#SVGID_43_)" d="M395.027,280.107c1.012-5.219-2.843-13.106-8.267-14.586c-2.265,1.044-4.946,1.721-7.295,1.934
		c3.321,3.019,9.186,5.869,10.518,9.444c0.594,1.595,1.518,5.151,1.709,8.325C393.291,284.322,394.521,282.717,395.027,280.107z"/>
	<linearGradient id="SVGID_44_" gradientUnits="userSpaceOnUse" x1="67.0831" y1="287.9352" x2="84.194" y2="287.9352">
		<stop  offset="0" style="stop-color:#203F5D"/>
		<stop  offset="1" style="stop-color:#2D4A61"/>
	</linearGradient>
	<path fill="url(#SVGID_44_)" d="M84.194,304.019c-3.171-4.825-6.064-10.685-7.042-12.916c-2.308-5.268-1.286-10.532-1.105-15.661
		c-1.91-0.91-3.343-2.193-3.818-3.94l-0.425-0.103c-0.646,2.492-1.364,5.072-2.478,7.301c-2.8,5.57-3.019,9.616-0.425,15.553
		c2.199,5.028,6.275,9.352,11.904,10.144C82.1,304.582,83.219,304.41,84.194,304.019z"/>
	<linearGradient id="SVGID_45_" gradientUnits="userSpaceOnUse" x1="228.8839" y1="285.6722" x2="258.3899" y2="285.6722">
		<stop  offset="0" style="stop-color:#04223D"/>
		<stop  offset="1" style="stop-color:#001730"/>
	</linearGradient>
	<path fill="url(#SVGID_45_)" d="M241.326,293.998c-0.819-0.106-3.316-5.871-3.692-6.843c-0.943-2.442-2.329-4.182-3.689-6.411
		c-0.792-1.298-1.207-2.132-2.471-3.115c-0.828-0.643-1.976-1.138-2.59-1.978c3.011-0.949,6.317,0.929,9.047,1.986
		c5.698,2.205,11.101,4.306,15.354,8.886c1.24,1.334,8.491,8.67,3.188,9.431C256.473,295.953,241.329,293.998,241.326,293.998z"/>
	<linearGradient id="SVGID_46_" gradientUnits="userSpaceOnUse" x1="84.2355" y1="292.5515" x2="97.1784" y2="292.5515">
		<stop  offset="0" style="stop-color:#04223D"/>
		<stop  offset="1" style="stop-color:#001730"/>
	</linearGradient>
	<path fill="url(#SVGID_46_)" d="M91.691,288.161c1.394,1.592,5.685,7.977,5.48,9.746c-0.593,5.086-6.568,1.32-7.925-0.49
		c-2.285-3.051-4.488-8.904-5.011-12.565C86.894,283.934,89.912,286.131,91.691,288.161z"/>
	<linearGradient id="SVGID_47_" gradientUnits="userSpaceOnUse" x1="348.6012" y1="277.5896" x2="373.0869" y2="277.5896">
		<stop  offset="0" style="stop-color:#04223D"/>
		<stop  offset="1" style="stop-color:#001730"/>
	</linearGradient>
	<path fill="url(#SVGID_47_)" d="M373.087,288.813c-3.509-4.535-8.695-8.876-10.745-11.696c-1.686-2.319-3.042-7.186-4.991-11.099
		c-1.921,0.989-3.855,2-5.964,2.508c-0.865,0.19-1.788,0.308-2.786,0.352l0.103,1.393c3.035,7.579,8.488,15.172,16.389,17.899
		C367.618,289.009,370.656,289.553,373.087,288.813z"/>
	<linearGradient id="SVGID_48_" gradientUnits="userSpaceOnUse" x1="374.7763" y1="279.7152" x2="389.237" y2="279.7152">
		<stop  offset="0" style="stop-color:#04223D"/>
		<stop  offset="1" style="stop-color:#001730"/>
	</linearGradient>
	<path fill="url(#SVGID_48_)" d="M377.168,282.76c-1.158-3.121,0.461-6.675-2.392-9.188c3.626-0.668,8.894,3.851,11.497,6.073
		c1.234,1.052,2.706,2.762,2.928,4.398c0.464,3.426-3.653,1.231-5.403,0.706C381.588,284.086,379.379,283.423,377.168,282.76z"/>
	<linearGradient id="SVGID_49_" gradientUnits="userSpaceOnUse" x1="23.3419" y1="225.5182" x2="51.0314" y2="225.5182">
		<stop  offset="0" style="stop-color:#04223D"/>
		<stop  offset="1" style="stop-color:#001730"/>
	</linearGradient>
	<path fill="url(#SVGID_49_)" d="M50.987,250.23l0.044-0.879c-8.767-0.484-14.103-19.043-12.827-25.976
		c0.616-3.387,0.733-4.647,0.073-7.637c3.181-1.217,7.095,2.58,7.945,5.775c3.049-9.264-8.166-19.32-18.251-21.696
		c-1.597-0.379-3.154-0.54-4.63-0.5c0.462,2.813,2.535,6.353,3.003,8.681c0.616,3.058,3.132,8.499,2.552,11.09
		c-0.637-2.021-1.902-3.646-2.575-5.57c-2.416,12.387,3.628,24.922,11.727,34.034c1.386,1.559,2.933,2.933,4.587,4.172
		C45.301,251.467,48.058,250.949,50.987,250.23z"/>
	<linearGradient id="SVGID_50_" gradientUnits="userSpaceOnUse" x1="23.638" y1="185.233" x2="81.5284" y2="185.233">
		<stop  offset="0" style="stop-color:#04223D"/>
		<stop  offset="1" style="stop-color:#001730"/>
	</linearGradient>
	<path fill="url(#SVGID_50_)" d="M51.339,186.17c7.945-1.599,23.674-1.599,28.76-9.178l1.099,0.03
		c0.072-2.177,0.19-4.296,0.329-6.373c-2.654,1.838-5.201,3.715-7.994,5.356c-8.141,4.786-17.919,6.479-26.693,8.526
		c-4.046,0.945-8.489,1.327-11.957,3.726c-2.841,1.966-11.382,7.431-11.244,11.039c1.386-0.009,2.845,0.167,4.332,0.521l0.044-0.162
		c2.873-4.163,5.512-7.051,10.114-9.322C42.279,188.28,46.808,187.079,51.339,186.17z"/>
	<linearGradient id="SVGID_51_" gradientUnits="userSpaceOnUse" x1="6.2088" y1="224.6086" x2="28.3223" y2="224.6086">
		<stop  offset="0" style="stop-color:#3F91C0"/>
		<stop  offset="1" style="stop-color:#00ACE6"/>
	</linearGradient>
	<path fill="url(#SVGID_51_)" d="M25.356,246.84c-4.182-4.17-7.204-10.292-8.576-16.12c-0.73-3.099-2.248-12.849-0.068-15.301
		c-0.278,0.087-0.589,0.092-0.855,0.193c-1.57,2.598-3.935,4.537-5.308,7.27c1.842-8.048,3.91-18.313,11.374-23.436l0.015-0.029
		c-0.699,0.093-1.376,0.232-2.014,0.444l-0.015-0.059c-0.073,0-0.132,0.014-0.206,0.044c-7.315,2.066-11.038,6.245-12.724,14.028
		c-1.349,6.275-1.363,14.718,3.577,19.541h0.029c0.22-1.612,0.953-3.327,2.052-4.734l0.425,0.292
		c-1.231,2.112,1.876,6.817,2.742,8.767c1.495,3.327,3.65,6.567,6.538,8.854c2.034,1.353,4.016,2.398,5.98,3.204
		C27.339,248.822,26.356,247.837,25.356,246.84z"/>
	<linearGradient id="SVGID_52_" gradientUnits="userSpaceOnUse" x1="19.7035" y1="177.982" x2="83.0173" y2="177.982">
		<stop  offset="0" style="stop-color:#3F91C0"/>
		<stop  offset="1" style="stop-color:#00ACE6"/>
	</linearGradient>
	<path fill="url(#SVGID_52_)" d="M28.532,193.156c3.977-2.573,8.222-5.165,12.503-7.079c8.592-3.844,18.218-4.883,27.078-8.315
		c4.405-1.706,9.957-5.218,13.596-9.66c0.206-2.55,0.454-4.998,0.737-7.278c0.162-1.583,0.352-3.152,0.571-4.691l-1.466-0.03
		c-1.612,13.311-16.652,21.799-28.438,24.35c-12.667,2.492-27.971,5.718-33.41,19.395c0.074-0.03,0.133-0.044,0.206-0.044
		l0.015,0.059c0.446-0.147,0.922-0.239,1.398-0.328C23.717,197.726,25.981,194.805,28.532,193.156z"/>
	<linearGradient id="SVGID_53_" gradientUnits="userSpaceOnUse" x1="223.1276" y1="83.0301" x2="250.7356" y2="113.0818">
		<stop  offset="0" style="stop-color:#203F5D"/>
		<stop  offset="1" style="stop-color:#0C7096"/>
	</linearGradient>
	<path fill="url(#SVGID_53_)" d="M246.512,115.261c0.492-7.131-1.162-14.143-5.555-20.324c-4.248-5.98-13.81-9.325-20.118-6.766
		c5.663-2.298,14.664,7.267,17.352,11.02c3.794,5.295,5.865,11.349,8.534,17.195C246.647,116.017,246.485,115.646,246.512,115.261z"
		/>
	<linearGradient id="SVGID_54_" gradientUnits="userSpaceOnUse" x1="239.2883" y1="43.8324" x2="278.7207" y2="86.7551">
		<stop  offset="0" style="stop-color:#203F5D"/>
		<stop  offset="1" style="stop-color:#0C7096"/>
	</linearGradient>
	<path fill="url(#SVGID_54_)" d="M243.768,44.057c0,0,32.251,23.942,27.12,49.352C270.888,93.409,287.746,59.694,243.768,44.057z"/>
	<linearGradient id="SVGID_55_" gradientUnits="userSpaceOnUse" x1="279.9033" y1="54.577" x2="298.5946" y2="74.9227">
		<stop  offset="0" style="stop-color:#203F5D"/>
		<stop  offset="1" style="stop-color:#0C7096"/>
	</linearGradient>
	<path fill="url(#SVGID_55_)" d="M291.899,45.645c0.265-0.606-12.644,13.56-4.398,39.214
		C287.501,84.858,285.486,60.304,291.899,45.645z"/>
	<linearGradient id="SVGID_56_" gradientUnits="userSpaceOnUse" x1="175.6306" y1="145.6962" x2="191.6114" y2="163.0915">
		<stop  offset="0" style="stop-color:#203F5D"/>
		<stop  offset="1" style="stop-color:#0C7096"/>
	</linearGradient>
	<path fill="url(#SVGID_56_)" d="M181.587,172.082c0,0-9.185-18.112,5.486-33.977C187.073,138.105,160.698,152.292,181.587,172.082z
		"/>
	<g>
		<g>
			<path fill="#231F20" d="M291.132,32.577c-0.407,0.812-10.856-6.579-27.292-14.874c-16.772-6.653-42.403-14.778-65.445-4.774
				c-23.067,9.063-38.766,30.116-47.619,46.055c-9.557,16.138-10.584,28.821-11.308,28.699c-0.442,0.14-0.195-13.188,9.042-29.916
				c8.507-16.456,24.35-38.432,48.619-48.019c24.481-10.492,51.002-1.668,67.768,5.62C281.648,24.477,291.196,32.352,291.132,32.577
				z"/>
		</g>
		<g>
			<path fill="#231F20" d="M114.176,125.313c-0.832-0.216,1.326-15.169,6.897-29.545c2.88-7.102,7.109-13.889,11.732-17.641
				c4.534-3.864,8.531-4.736,8.665-4.267c0.054,0.384-12.506,8.555-17.228,23.204C118.883,110.83,115.53,125.694,114.176,125.313z"
				/>
		</g>
		<g>
			<path fill="#231F20" d="M86.268,218.678c-2.018,0.895-10.184-29.472-5.31-59.78c0.601-15.544,9.925-29.967,19.372-36.448
				c9.695-6.183,14.762-11.191,15.189-11.025c4.279,3.101-30.495,15.77-31.161,47.871C79.59,189.212,86.379,218.602,86.268,218.678z
				"/>
		</g>
		<g>
			<path fill="#231F20" d="M74.358,223.245c-0.195,1.131-7.652-4.597-3.401-12.618c6.193-7.476,14.297-0.54,12.791-0.182
				c-0.242,1.009-7.036-2.435-9.945,2.084C70.922,216.927,75.394,222.72,74.358,223.245z"/>
		</g>
		<g>
			<path fill="#231F20" d="M83.334,285.723c0.145-0.115,1.768,0.886,3.812,3.616c1.868,2.525,4.256,8.329,0.285,13.855
				c-12.924,9.725-29.007-13.954-18.878-27.309c2.339-6.756,4.157-14.115,4.024-20.762c-0.084-6.598-2.734-12.814-3.409-18.583
				c-0.908-5.606,0.11-11.281,3.218-13.507c2.843-2.21,4.983-2.017,4.979-1.872c0.458,0.095-8.939,3.138-5.659,14.967
				c0.853,5.348,3.756,11.388,4.08,18.893c0.252,7.391-1.527,14.837-4.056,22.141c-9.421,12.395,5.686,30.822,13.766,24.351
				C91.043,292.422,81.905,285.772,83.334,285.723z"/>
		</g>
		<g>
			<path fill="#231F20" d="M91.183,275.493c0.424-0.106,7.554,6.283,11.407,16.331c0.787,2.467,0.676,6.302-1.885,8.285
				c-2.724,1.784-4.913,1.678-6.922,1.779c-4.134,0.185-6.453-2.764-5.608-3.026c0.51-0.136,1.938,0.969,5.486,0.458
				c3.731-0.325,7.315-1.984,5.626-6.595C96.225,284.479,89.564,276.289,91.183,275.493z"/>
		</g>
		<g>
			<path fill="#231F20" d="M92.636,276.11c0.308,0.603-5.447,2.595-11.274,1.679c-6.315-0.112-10.292-6.033-9.115-6.292
				c0.245,0.12,3.414,4.295,9.35,4.595C87.106,276.942,92.438,275.668,92.636,276.11z"/>
		</g>
		<g>
			<path fill="#231F20" d="M98.719,250.219c0.203,0.85-3.736,5.54-5.096,12.541c-1.85,6.741-1.268,13.159-2.2,13.613
				c-1.24,0.538-3.188-7.288-1.122-14.437C91.509,254.491,97.989,248.709,98.719,250.219z"/>
		</g>
		<g>
			<path fill="#231F20" d="M93.959,247.061c0.291,1.101-9.736,3.814-10.047,2.646C83.639,248.663,93.67,245.961,93.959,247.061z"/>
		</g>
		<g>
			<path fill="#231F20" d="M154.342,176.472c0.411-0.203,2.865,8.03,0.18,20.085c-2.938,11.792-7.768,27.138-16.314,41.182
				c-4.351,6.869-10.476,13.159-18.036,15.988c-7.62,2.623-15.408,1.645-21.043-1.098c-11.311-5.957-14.418-14.34-14.253-14.24
				c0.677-0.756,4.783,7.065,15.292,11.888c5.202,2.252,12.286,2.859,18.874,0.444c6.571-2.602,12.143-8.289,16.293-14.844
				c8.117-13.264,13.35-28.709,16.692-39.908C155.159,184.516,153.649,176.563,154.342,176.472z"/>
		</g>
		<g>
			<path fill="#231F20" d="M177.958,218.791c-0.081,1.152-9.088,1.205-17.842,2.789c-8.897,1.294-16.539,5.449-17.253,4.59
				c-0.816-0.916,7.265-6.63,16.659-7.961C168.752,216.549,178.071,217.676,177.958,218.791z"/>
		</g>
		<g>
			<path fill="#231F20" d="M28.041,199.678c-0.203-0.113,1.26-3.656,5.577-7.464c4.406-3.862,11.824-5.941,19.067-7.43
				c7.373-1.094,14.598-1.671,19.664-3.467c5.171-1.595,7.337-4.613,7.774-4.305c0.282,0.027-1.721,3.824-7.155,5.918
				c-5.237,2.273-12.777,3.061-19.892,4.121c-7.009,1.436-14.204,3.285-18.398,6.521C30.464,196.776,28.445,200,28.041,199.678z"/>
		</g>
		<g>
			<path fill="#231F20" d="M81.514,156.105c0.157-0.135,0.389,5.542-4.53,11.728c-4.723,6.236-13.975,11.609-24.016,13.823
				c-9.788,1.814-19.488,4.426-25.227,9.042c-5.834,4.439-7.48,9.457-8.068,9.145c-0.13,0.086,0.987-5.391,6.989-10.495
				c5.913-5.247,16.058-8.137,25.859-9.949c9.517-2.1,18.467-7.069,23.139-12.668C80.542,161.225,80.914,155.956,81.514,156.105z"/>
		</g>
		<g>
			<path fill="#231F20" d="M10.582,233.396c-1.03,1.369-8.123-9.106-4.615-20.168c0.996-5.383,4.58-10.458,8.509-12.14
				c3.75-1.827,6.513-1.862,6.566-1.568c0.516,0.595-11.455,3.046-12.833,14.226C5.03,224.175,10.546,233.318,10.582,233.396z"/>
		</g>
		<g>
			<path fill="#231F20" d="M13.164,228.011c0.598,1.003-1.51,5.771-2.668,5.987C8.316,233.83,11.572,226.493,13.164,228.011z"/>
		</g>
		<g>
			<path fill="#231F20" d="M50.973,250.195c0.525,0.263-12.71,6.007-25.099-0.255c-6.437-2.414-9.869-9.073-11.547-13.199
				c-2.525-4.113-2.019-8.144-1.236-7.752c0.001,0.192,0.008,2.88,2.767,6.95c2.179,4.183,5.198,9.732,11.033,11.936
				C38.041,253.686,50.969,249.065,50.973,250.195z"/>
		</g>
		<g>
			<path fill="#231F20" d="M38.061,214.862c0.232-0.086,1.583,2.243,1.361,6.262c-0.749,3.794-0.278,8.312,1.077,13.09
				c2.046,10.157,10.001,15.679,10.528,15.172c0.132,0.316-3.048,0.687-5.998-2.233c-2.978-2.689-5.327-7.426-6.744-12.314
				c-1.455-4.777-1.705-10.429-0.571-13.935C38.288,217.451,37.57,214.95,38.061,214.862z"/>
		</g>
		<g>
			<path fill="#231F20" d="M45.848,222.579c-0.472-0.176,0.641-2.591-0.172-6.064c-0.666-3.499-3.796-7.484-7.603-10.471
				c-7.828-6.706-18.069-6.107-18.162-6.207c-0.638-1.423,11.229-2.889,19.575,4.392c4.111,3.212,7.491,7.805,7.886,11.982
				C47.881,220.383,46.024,222.768,45.848,222.579z"/>
		</g>
		<g>
			<path fill="#231F20" d="M186.679,174.594c0.06,0.135-3.248-0.235-6.152-3.841c-3.011-3.553-3.771-9.899-2.932-15.647
				c1.301-12.08,10.611-20.86,11.267-19.664c-0.084-0.129-8.28,8.349-9.573,19.915c-0.793,5.492-0.203,11.334,2.276,14.642
				C183.908,173.387,186.88,174.199,186.679,174.594z"/>
		</g>
		<g>
			<path fill="#231F20" d="M183.205,173.967c0.849,0.504-7.844,3.987-12.811-2.747c-4.843-5.982-2.571-13.8-1.989-13.339
				c0.482-0.026-0.938,7.105,3.328,12.276C175.831,175.914,183.289,173.466,183.205,173.967z"/>
		</g>
		<g>
			<path fill="#231F20" d="M184.137,172.716c0.553,0.279-2.034,4.442-6.18,6.837c-4.137,2.951-9.586,1.361-9.056,0.607
				c0.259-0.306,4.368,0.518,8.189-2.083C180.91,175.863,183.68,172.444,184.137,172.716z"/>
		</g>
		<g>
			<path fill="#231F20" d="M190.162,237.67c0.376,0.263-5.716,1.593-10.383-4.833c-4.134-6.35-4.13-16.359-1.549-25.279
				c2.916-8.741,6.578-16.832,6.74-23.302c0.514-6.577-3.583-9.417-3.058-9.944c-0.07-0.596,5.537,2.212,5.629,9.929
				c0.402,7.265-3.306,16.045-6.034,24.307c-2.418,8.227-2.555,17.523,0.451,22.937C185.118,236.961,190.443,236.878,190.162,237.67
				z"/>
		</g>
		<g>
			<path fill="#231F20" d="M228.479,275.108c0.401-1.021,8.69,4.332,12.395,17.866c1.459,8.219-8.696,14.589-17.149,12.631
				c-8.346-1.177-17.759-6.411-20.202-16.27c0.05-17.783-0.603-35.147-10.647-44.548c-4.303-5.217-5.23-11.732-4.419-15.374
				c0.616-3.724-0.401-5.613-0.097-5.801c0.16-0.209,1.814,1.89,1.595,5.884c-0.268,3.791,0.734,8.887,4.968,13.733
				c10.84,9.029,12.314,29.284,11.967,45.478c3.287,15.672,32.576,19.165,31.428,4.454
				C235.449,281.129,228.389,274.945,228.479,275.108z"/>
		</g>
		<g>
			<path fill="#231F20" d="M247.334,270.142c-0.07,0.538-11.036-0.774-21.972-0.165c-11.36-0.248-20.618,5.496-20.32,6.124
				c-0.219-0.039,1.197-2.896,5.188-4.698c3.881-1.815,9.481-2.845,15.037-3.134C236.428,267.651,247.443,269.558,247.334,270.142z"
				/>
		</g>
		<g>
			<path fill="#231F20" d="M221.42,248.207c1.102-0.218,3.99,7.553,11.56,11.447c7.363,3.809,14.857,8.986,13.911,10.087
				c-0.631,0.617-7.822-3.051-15.689-7.162C222.682,258.197,220.09,248.203,221.42,248.207z"/>
		</g>
		<g>
			<path fill="#231F20" d="M222.266,201.892c0.482,0.571-3.19,2.349-3.37,7.113c-0.248,4.736,2.856,10.983,5.509,17.473
				c3.194,6.731,2.192,14.979-0.424,19.721c-2.54,4.816-5.012,7.324-5.457,7.051c-1.477-0.404,8.824-12.761,2.697-25.515
				c-2.511-6.28-5.746-13.06-4.873-19.011C217.477,202.454,222.415,201.445,222.266,201.892z"/>
		</g>
		<g>
			<path fill="#231F20" d="M246.874,128.184c0.368-0.252,3.699,5.092,4.857,14.178c1.383,9.006,0.206,21.286-3.463,32.819
				c-3.822,11.461-10.491,22.162-17.912,27.731c-7.278,5.798-13.727,6.492-13.718,6.09c-0.24-0.707,5.64-2.209,12.053-8.05
				c6.588-5.62,12.642-15.846,16.324-26.844C253.37,151.564,246.761,128.162,246.874,128.184z"/>
		</g>
		<g>
			<path fill="#231F20" d="M253.447,199.272c0.278,0.681-5.049,1.361-8.972-1.731c-4.116-2.707-5.589-7.693-4.889-7.759
				c0.477-0.103,2.186,3.914,5.881,6.365C249.012,198.892,253.314,198.804,253.447,199.272z"/>
		</g>
		<g>
			<path fill="#231F20" d="M270.962,206.359c0.401,0.487-6.917,2.938-13.123-1.084c-6.299-3.857-7.324-11.49-6.688-11.355
				c0.53-0.165,2.004,6.522,7.602,9.908C264.23,207.419,270.869,205.791,270.962,206.359z"/>
		</g>
		<g>
			<path fill="#231F20" d="M264.744,193.345c-0.301,0.371-2.985-2.543-2.585-7.852c0.368-5.151,3.248-11.327,6.979-16.649
				c7.37-10.866,18.539-18.308,19.302-16.928c0.375,0.626-9.431,8.502-16.498,18.891c-3.56,5.076-6.401,10.631-7.239,15.007
				C263.822,190.218,265.338,193.001,264.744,193.345z"/>
		</g>
		<g>
			<path fill="#231F20" d="M312.303,233.545c-0.489,0.493-3.941-2.605-10.1-5.64c-6.069-3.215-15.082-5.815-23.316-10.99
				c-8.927-5.177-12.659-15.328-13.188-22.543c-0.543-8.196,5.796-11,5.656-10.206c0.444,0.441-4.131,3.177-3.092,10.015
				c0.943,6.249,4.793,15.62,12.459,19.845c7.596,4.82,16.664,7.796,22.722,11.636C309.626,229.365,312.651,233.267,312.303,233.545
				z"/>
		</g>
		<g>
			<path fill="#231F20" d="M240.958,294.807c0,0.142-0.209,0.276-0.601,0.402l-0.329,0.092c-0.223-1.82,0.165-0.545,0.233-0.969
				l1.021-0.115c1.52-0.102,3.628,0.03,6.109,0.153c4.322,0.179,13.421,0.833,12.488-5.124
				c-2.447-11.823-15.856-19.495-14.496-20.453c-0.189-0.55,14.35,4.909,17.916,20.283c0.988,4.318-3.855,8.362-7.221,8.206
				c-3.446,0.445-6.446,0.031-8.965-0.362c-2.515-0.415-4.551-0.896-5.951-1.214l-0.926-0.213c-0.059-0.513-0.434,0.998-0.208-1.175
				l0.329,0.09C240.749,294.532,240.958,294.664,240.958,294.807z"/>
		</g>
		<g>
			<path fill="#231F20" d="M224.615,237.9c0.281,0.573,5.416,1.258,8.329,9.005c-0.106,3.602-3.633,3.652-4.648,3.645
				c-1.41,0.031-2.53-0.113-3.148,0.1c-1.33,0.223-1.968,1.738-2.64,1.529c-0.312,0.082-1.038-2.102,1.576-3.868
				c2.391-1.147,6.529-1.094,5.437-1.44C228.612,244.085,222.535,238.574,224.615,237.9z"/>
		</g>
		<g>
			<path fill="#231F20" d="M274.498,285.197c-0.225-0.036-3.632-4.923-11.046-10.804c-3.419-3.255-8.107-6.15-11.235-12.254
				c-2.169-3.977,2.419-8.282,5.348-8.632c3.169-1.153,6.422-1.394,9.411-1.916c16.207,0.22,7.682-17.189,2.29-22.721
				c-6.22-6.859-9.951-12.272-9.291-12.637c0.391-0.162,4.405,4.262,11.225,10.943c3.298,3.334,6.738,8.474,8.171,14.417
				c0.646,2.836,1.16,7.37-2.312,9.972c-3.025,2.246-6.396,2.829-9.511,3.4c-5.61,0.726-14.215,1.944-12.33,6.043
				c2.09,4.511,6.794,8.23,9.964,11.493C272.241,278.759,275.455,284.872,274.498,285.197z"/>
		</g>
		<g>
			<path fill="#231F20" d="M275.765,285.237c-0.232,1.304-16.074,3.719-16.709,1.693
				C258.346,284.494,275.883,281.95,275.765,285.237z"/>
		</g>
		<g>
			<path fill="#231F20" d="M259.812,218.826c-0.361,1.144-10.416-3.555-20.114-3.774c-4.625,0.324-9.245,3.519-13.679,3.947
				c-4.375,0.431-6.936-1.145-6.767-1.553c0.147-0.663,2.787-0.076,6.3-0.975c3.483-0.704,7.844-4.236,13.888-4.832
				C251.1,211.967,260.277,217.977,259.812,218.826z"/>
		</g>
		<g>
			<path fill="#231F20" d="M283.052,217.058c-0.291,1.203-6.934-0.394-13.224-1.391c-7.076-1.792-10.333,1.993-11.341,2.246
				c-0.305,0.17-0.595-2.47,1.978-4.192c2.547-1.983,6.444-1.847,9.841-1.444C277.22,213.396,283.304,216.058,283.052,217.058z"/>
		</g>
		<g>
			<path fill="#231F20" d="M225.06,88.966c0.232-0.623,7.188,2.892,12.124,8.708c5.294,5.556,7.506,13.199,6.736,13.294
				c-0.402,0.05-2.912-6.761-8.018-12.16C231.117,93.184,224.865,89.417,225.06,88.966z"/>
		</g>
		<g>
			<path fill="#231F20" d="M242.365,45.36c0.714-4.154,14.579,6.545,22.305,19.857c4.183,6.572,7.446,13.918,7.934,19.922
				c0.754,6.154-2.389,9.605-2.429,9.353c-0.368-0.18,2.139-3.487,1.151-9.207c-0.723-5.625-3.996-12.708-8.106-19.157
				C255.37,52.934,242.992,42.465,242.365,45.36z"/>
		</g>
		<g>
			<path fill="#231F20" d="M291.664,45.882c-0.449-0.209-5.54,8.542-5.97,18.89c-1.394,10.232,1.791,19.819,2.072,19.804
				c-1.221,0.796-5.274-9.544-3.775-19.962C284.329,54.081,290.503,44.654,291.664,45.882z"/>
		</g>
		<g>
			<path fill="#231F20" d="M370.449,115.056c-0.574,0.143-2.933-5.284-7.795-13.019C357.942,94.013,353.307,82.91,343.3,76
				c-9.385-7.503-19.628-13.955-28.025-16.931c-8.379-3.234-14.485-2.379-14.556-3.102c-0.196-0.398,6.3-2.196,15.359,0.66
				c9.035,2.587,19.784,9.042,29.353,16.695c10.551,7.237,15.576,19.766,19.469,27.482
				C369.278,108.823,370.997,114.932,370.449,115.056z"/>
		</g>
		<g>
			<path fill="#231F20" d="M355.092,84.797c-1.812,1.035-3.238-31.946-26.239-51.71c-11.07-9.463-25.68-14.568-36.541-14.518
				c-11.089-0.17-17.338,4.832-17.717,4.064c-0.369-0.083,5.755-6.183,17.664-6.634c11.627-0.614,27.05,4.438,38.837,14.502
				C355.494,51.806,355.463,85.716,355.092,84.797z"/>
		</g>
		<g>
			<path fill="#231F20" d="M336.456,88.966c0.457,0.747-12.183,4.17-14.608,15.57c-1.391,5.303,1.384,10.146,5.066,11.978
				c3.606,1.88,6.64,2.205,6.547,2.963c0,0.351-3.109,0.996-7.655-0.644c-4.756-1.376-9.252-8.499-7.3-15.039
				C321.709,89.876,337.015,87.381,336.456,88.966z"/>
		</g>
		<g>
			<path fill="#231F20" d="M337.74,89.916c0.147,1.82-19.531-9.503-35.303,2.225c-7.361,5.464-13.526,12.947-15.966,19.25
				c-2.737,6.495,0.299,10.793-0.397,11.11c-0.127,0.576-4.567-4.223-2.043-11.924c2.227-7.308,8.474-15.304,16.404-21.214
				c8.247-6.077,19.309-6.853,26.297-4.543C333.84,86.861,337.929,89.5,337.74,89.916z"/>
		</g>
		<g>
			<path fill="#231F20" d="M248.972,115.617c-1.022,0.233,1.473-7.526,11.106-8.428c4.229-0.684,9.929-0.879,15.083,2.209
				c5.089,3.102,8.047,8.462,11.812,12.237c7.847,7.321,18.644,12.04,26.54,14.008c8.126,2.242,13.504,0.268,13.775,0.958
				c0.335,0.324-5.5,3.381-14.299,1.559c-8.611-1.619-19.637-5.951-28.474-14.141c-4.169-4.3-6.932-9.313-11.055-11.901
				c-4.073-2.637-8.942-2.749-13.052-2.386C251.636,110.106,249.386,115.782,248.972,115.617z"/>
		</g>
		<g>
			<path fill="#231F20" d="M250.028,135.732c-1.235,0.941-4.598-5.393-3.605-11.898c0.381-3.181,1.633-6.591,3.95-8.256
				c2.358-1.682,4.353-0.981,4.266-0.481c-0.376,0.606-4.601,2.91-4.816,9.144C249.023,129.972,250.668,135.23,250.028,135.732z"/>
		</g>
		<g>
			<path fill="#231F20" d="M295.28,145.663c1.234,1.288-11.806,8.97-25.924,6.272c-6.823-1.051-13.66-4.415-16.645-9.098
				c-3.084-4.577-2.585-8.416-2.163-8.365c0.687-0.132,1.152,3.288,4.192,6.784c2.906,3.623,8.879,6.303,15.156,7.298
				C282.916,151.007,294.96,145.171,295.28,145.663z"/>
		</g>
		<g>
			<path fill="#231F20" d="M295.09,141.735c-0.571,1.682-9.002-3.951-16.452-9.629c-3.854-2.647-8.11-5.138-11.405-4.976
				c-3.278,0.385-4.338,3.105-4.707,2.763c-0.11,0.18,0.419-3.117,4.564-4.04c4.05-0.467,8.581,2.173,12.521,4.844
				C287.393,136.576,294.739,142.24,295.09,141.735z"/>
		</g>
		<g>
			<path fill="#231F20" d="M323.776,136.679c-0.043-0.528,3.951-1.672,6.365-5.167c2.508-3.293,3.779-7.371,4.386-7.218
				c0.508,0.077-0.253,4.598-3.028,8.26C328.787,136.504,323.726,137.359,323.776,136.679z"/>
		</g>
		<g>
			<path fill="#231F20" d="M350.814,136.981c0.84-0.145-4.041,9.695-14.196,9.56c-9.815-0.369-15.656-9.287-14.002-9.665
				c-0.442,0.198,5.224,7.503,14.018,7.954C345.561,145.058,350.558,136.487,350.814,136.981z"/>
		</g>
		<g>
			<path fill="#231F20" d="M365.236,136.908c0.587,0.216-2.852,5.733-8.813,7.739c-5.963,2.419-12.1-0.481-11.626-1.021
				c0.21-0.448,5.673,1.589,11.05-0.591C361.269,141.217,364.785,136.604,365.236,136.908z"/>
		</g>
		<g>
			<path fill="#231F20" d="M383.165,136.594c0.548,0.074-3.389,7.59-11.314,9.849c-7.875,2.305-15.278-1.741-14.861-2.139
				c0.178-0.58,7.281,2.615,14.386,0.495C378.538,142.803,382.674,136.196,383.165,136.594z"/>
		</g>
		<g>
			<path fill="#231F20" d="M363.216,118.911c-0.077,0.079,1.662-3.144,6.598-4.353c5.161-1.311,11.599,2.95,14.583,8.664
				c3.264,5.629,3.463,13.075,0.198,17.115c-3.138,3.97-6.757,4.329-6.67,4.253c-0.253-0.437,3.081-1.291,5.612-4.983
				c2.654-3.688,2.374-10.3-0.638-15.557c-2.823-5.311-8.413-9.115-12.877-8.227C365.65,116.576,363.524,119.351,363.216,118.911z"
				/>
		</g>
		<g>
			<path fill="#231F20" d="M342.328,117.322c-0.106-0.425,5.457-2.95,11.68-4.306c6.615-1.575,12.539,2.54,11.962,2.995
				c-0.289,0.408-5.61-2.744-11.667-1.309C348.465,115.965,342.503,117.997,342.328,117.322z"/>
		</g>
		<g>
			<path fill="#231F20" d="M334.865,126.051c-0.495,1.026-4.319-9.277,4.163-13.974c7.907-4.541,15.714,1.656,14.818,1.95
				c-0.017,0.464-7.238-4.449-13.974-0.461C332.662,117.358,335.368,126.303,334.865,126.051z"/>
		</g>
		<g>
			<path fill="#231F20" d="M379.035,93.608c0.422-3.361,12.194,3.506,15.65,14.737c2.286,6.15-1.079,12.559-4.336,15.223
				c-3.245,2.916-5.935,3.89-6.222,3.44c-1.339-0.656,10.671-7.543,7.321-17.545C387.858,99.231,379.523,92.825,379.035,93.608z"/>
		</g>
		<g>
			<path fill="#231F20" d="M380.67,142.19c0.275-0.819,6.037,3.028,15.213,2.137c9.225-0.272,19.794-10.337,18.573-22.795
				c-0.975-11.932-12.296-20.731-19.879-25.04c-8.273-4.608-14.714-2.378-14.837-3.079c-0.465-0.336,6.653-3.711,15.955,0.764
				c8.366,4.238,20.689,12.768,22.178,27.15c1.546,14.256-11.448,26.043-21.776,25.555
				C385.817,147.199,380.385,142.301,380.67,142.19z"/>
		</g>
		<g>
			<path fill="#231F20" d="M385.008,159.457c-0.588-0.203,1.873-3.482,6.804-3.147c4.555-0.004,10.336,1.971,15.013,0.262
				c10.307-4.655,4.071-18.822,5.585-18.361c0.421-0.157,2.152,2.268,3.085,6.824c1.077,4.262-0.533,12.293-7.473,14.744
				c-6.588,2.169-12.451-0.538-16.396-0.912C387.539,158.058,385.486,159.913,385.008,159.457z"/>
		</g>
		<g>
			<path fill="#231F20" d="M354.843,174.384c0.253-0.601,5.617,4.289,5.523,14.015c-0.176,4.263-1.44,11.889-9.394,12.931
				c-7.273-1.316-10.502-7.416-13.726-12.508c-5.128-10.847-10.02-22.247-17.273-26.46c-7.769-3.177-11.882,4.989-12.287,3.659
				c-0.201-0.149,0.571-1.462,2.331-3.562c1.714-1.82,6.114-4.708,11.047-2.425c9.108,4.674,14.156,16.754,19.186,27.144
				c2.704,4.769,6.664,10.317,10.891,10.949c3.988-0.08,6.648-6.043,6.663-9.842C358.428,179.52,354.385,174.687,354.843,174.384z"
				/>
		</g>
		<g>
			<path fill="#231F20" d="M348.948,163.529c-0.514,0.095-2.235-4.862-5.975-8.595c-3.514-4.076-8.512-5.287-8.539-5.769
				c-0.079-0.743,6.046,0.176,9.781,4.59C348.235,157.757,349.586,163.472,348.948,163.529z"/>
		</g>
		<g>
			<path fill="#231F20" d="M373.554,168.841c-1.406-0.487,5.096-14.423,6.433-13.616
				C380.587,155.674,374.334,169.043,373.554,168.841z"/>
		</g>
		<g>
			<path fill="#231F20" d="M388.811,160.48c0.313,0.7-6.004,10.16-8.867,22.516c-2.132,6.013-5.711,11.583-10.093,14.327
				c-4.804,3.068-8.557-0.074-7.911-0.342c0.242-0.591,3.202,1.012,6.456-1.778c3.224-2.564,6.412-7.865,8.322-13.355
				C379.366,169.866,387.665,159.124,388.811,160.48z"/>
		</g>
		<g>
			<path fill="#231F20" d="M322.068,238.932c-0.507-0.087-0.598-4.282,0.05-10.714c0.441-3.188,0.93-7.054,3.122-10.912
				c1.913-4.123,7.759-6.637,12.292-5.394c9.119,1.88,16.014,8.09,19.799,13.455c4.028,5.549,3.321,10.632,2.822,10.436
				c-0.664,0.004-0.815-4.222-4.876-8.892c-3.788-4.555-10.678-10.121-18.326-11.627c-8.327-2.143-11.325,7.564-12.303,13.349
				C323.466,234.771,322.684,239.035,322.068,238.932z"/>
		</g>
		<g>
			<path fill="#231F20" d="M325.55,246.066c0.644,1.265-12.4,1.331-16.705-10.536c-1.158-7.019,6.058-10.299,9.497-10.71
				c4.398-0.762,6.647,2.281,6.04,2.479c-0.465,0.442-2.263-1.039-5.51,0.036c-3.003,1.012-7.635,3.738-6.664,7.557
				C314.972,243.153,326.021,245.387,325.55,246.066z"/>
		</g>
		<g>
			<path fill="#231F20" d="M390.024,256.721c0.006-0.092,1.818,0.377,2.457,3.366c0.213,3.381-3.616,6.104-7.682,7.543
				c-3.732,1.845-10.744,1.891-14.973-1.452c-4.385-2.458-9.063-0.073-14.324,2.661c-12.173,4.648-24.304-1.291-30.676-7.294
				c-7.088-7.267-2.532-14.689-2.375-13.841c0.776-0.054-2.245,6.376,4.177,12.007c5.696,4.967,17.893,9.985,27.455,6.013
				c4.441-2.429,11.546-5.887,17.186-2.411c4.62,3.462,8.469,3.035,12.747,1.875c3.864-1.069,6.886-3.139,6.97-5.085
				C390.98,258.124,389.675,256.934,390.024,256.721z"/>
		</g>
		<g>
			<path fill="#231F20" d="M393.277,237.687c-0.13-0.087,1.984,0.077,3.145,2.767c1.164,2.563,1.163,6.697-0.551,11.012
				c-1.429,4.213-6.133,9.388-12.78,8.993c-6.089-0.737-11.194-5.069-15.966-5.205c-4.922,0.017-9.226,4.79-14.804,6.837
				c-5.824,2.291-11.559,0.547-15.587-1.317c-8.754-3.997-10.141-11.287-9.587-11.095c0.603-0.371,2.558,5.695,10.62,8.741
				c3.822,1.472,8.882,2.681,13.39,0.679c4.644-1.579,8.801-6.894,15.946-7.268c7.04,0.558,11.441,4.899,16.337,5.44
				c4.578,0.384,8.538-3.141,10.086-6.84C397.653,242.371,393.232,237.803,393.277,237.687z"/>
		</g>
		<g>
			<path fill="#231F20" d="M337.81,238.464c-0.357,0.246-1.854-0.451-2.853-2.993c-1.692-3.555,3.884-6.985,6.947-5.748
				c7.344,0.928,10.012,8.528,8.499,8.612c-0.879,0.286-3.683-4.623-9.002-5.225C334.997,231.843,338.735,237.778,337.81,238.464z"
				/>
		</g>
		<g>
			<path fill="#231F20" d="M388.242,235.177c-0.598-0.019-0.92-0.886-1.324-1.915l-0.309-0.786l-0.066-0.208l-0.033-0.106
				l-0.014-0.053l-0.009-0.027l-0.001-0.006l-0.001-0.004c-1.613-0.969,2.197,1.317,1.804,1.082l-0.012,0.009l-0.371,0.246
				c-0.479,0.386-1.077,0.405-1.556,0.963c-2.044,1.599-4.338,4.246-5.333,3.434c-0.756-0.591,0.265-3.705,3.298-6.187
				c0.637-0.687,1.765-0.928,2.613-1.264l0.659-0.202l0.02-0.006c-0.399-0.242,3.502,2.102,1.851,1.112v0.004v0.011l0.003,0.04
				l0.004,0.082l0.009,0.162l0.013,0.316l-0.014,1.161C389.325,234.429,388.776,235.199,388.242,235.177z"/>
		</g>
		<g>
			<path fill="#231F20" d="M373.756,227.368c0.441,0.278-1.996,3.066-5.556,3.613c-3.606,0.47-6.665-1.742-6.293-2.093
				c0.381-0.548,3.084,0.777,6.064,0.397C370.931,228.817,373.26,226.954,373.756,227.368z"/>
		</g>
		<g>
			<path fill="#231F20" d="M393.736,238.145c-0.336-0.54,2.266-2.69,2.458-7.869c0.634-4.51-1.109-13.112-6.761-11.962
				c-5.122,2.152-8.934,9.222-12.657,12.773c-3.543,4.225-7.855,5.011-7.828,4.286c-0.044-0.535,2.915-1.656,5.874-5.957
				c3.462-3.748,5.809-10.75,13.679-14.396c4.769-1.515,8.711,2.713,9.758,6.067c1.184,3.52,0.89,6.832,0.471,9.564
				C397.972,236.387,393.859,238.768,393.736,238.145z"/>
		</g>
		<g>
			<path fill="#231F20" d="M380.253,221.179c-0.852,0.273-11.35-23.459-10.914-23.76C370.897,196.588,381.562,220.7,380.253,221.179
				z"/>
		</g>
		<g>
			<path fill="#231F20" d="M350.499,214.298c-1.137-0.062-0.773-7.905,0.434-7.838C352.011,206.52,351.636,214.359,350.499,214.298z
				"/>
		</g>
		<g>
			<path fill="#231F20" d="M392.813,215.775c-0.485,0.016-0.72-3.573,1.092-8.369c1.724-4.751,5.063-10.495,4.355-16.52
				c-1.792-12.724-12.433-21.05-12.548-20.983c0.627-2.365,14.084,5.985,15.958,20.692c0.75,7.46-3.387,13.664-5.409,17.822
				C394.054,212.689,393.473,215.818,392.813,215.775z"/>
		</g>
		<g>
			<path fill="#231F20" d="M395.049,158.628c0.206,1.091-2.687,3.127-3.402,6.972c-0.998,3.799,0.643,6.824-0.053,7.766
				c-0.737,1.155-4.763-3.44-3.281-8.539C389.211,159.552,394.886,157.231,395.049,158.628z"/>
		</g>
		<g>
			<path fill="#231F20" d="M346.633,196.443c0.226,0.044-2.225,3.844-8.319,5.606c-5.709,1.828-15.869,0.311-20.084-7.756
				c-4.282-8.068-0.543-16.75,1.961-21.887c2.817-5.404,5.869-8.189,6.137-7.921c0.368,0.303-2.087,3.404-4.396,8.751
				c-2.124,5.063-5.051,13.454-1.466,19.793c3.447,6.76,12.098,8.385,17.402,7.149C343.429,199.023,346.216,195.956,346.633,196.443
				z"/>
		</g>
		<g>
			<path fill="#231F20" d="M382.472,169.936c0.218-0.832,8.571,7.997,4.999,19.057c-1.805,5.356-7.371,8.276-11.209,8.485
				c-3.921,0.321-6.366-0.581-6.307-0.92c-0.518-0.939,11.679,0.996,15.11-8.459C388.21,179.052,381.522,170.206,382.472,169.936z"
				/>
		</g>
		<path fill="#231F20" d="M333.369,176.215c-3.811-3.479-5.739,9.174-4.502,11.992c2.31,5.264,8.226,4.163,11.637,1.072
			L333.369,176.215z"/>
		<path fill="#231F20" d="M375.393,190.343c6.429,0.198,11.779-9.544,5.105-13.259L375.393,190.343z"/>
		<g>
			<path fill="#231F20" d="M46.43,222.595c-0.72-0.057-1.542-2.624-3.744-4.479c-2.133-2.093-4.416-1.563-4.966-2.143
				c-0.776-0.79,3.764-2.512,6.491,0.421C47.019,218.688,47.318,222.698,46.43,222.595z"/>
		</g>
	</g>
	<g>
		<path fill="#231F20" d="M373.864,273.332c-0.037-0.354,3.749,1.487,4.475,6.883c0.349,2.485,0.202,5.998-2.625,8.62
			c-3.108,2.375-7.109,1.766-10.259,0.868c-13.962-4.79-17.517-19.79-16.715-19.449c0.832-0.812,5.469,12.951,17.49,16.828
			c2.845,0.869,6.084,1.135,7.917-0.271c1.716-1.396,2.342-4.313,2.153-6.416C376.142,275.857,373.453,273.818,373.864,273.332z"/>
	</g>
	<g>
		<path fill="#231F20" d="M386.319,265.449c-0.256-2.15,12.893,4.127,9.463,16.579c-2.016,6.65-10.249,5.779-13.176,4.081
			c-3.649-1.626-5.338-3.758-5.054-4.039c0.321-0.391,2.349,1.072,5.758,2.112c3.205,1.061,8.794,1.372,9.918-3.124
			c1.632-3.946-0.563-8.999-2.547-11.603C388.597,266.615,386.206,265.983,386.319,265.449z"/>
	</g>
</g>
</svg>
